<svg width="6" height="14" viewBox="0 0 6 14" fill="none" xmlns="http://www.w3.org/2000/svg">
<path d="M4.18029 13.0503C4.36245 13.2351 4.60933 13.3419 4.86877 13.3481L4.97622 13.3506C5.53765 13.364 6 12.9125 6 12.3509L6 11.1494C6 10.8898 5.89904 10.6403 5.71847 10.4538L3.0338 7.68069C2.65712 7.29159 2.65862 6.67334 3.0372 6.28608L5.71507 3.54683C5.89773 3.35999 6 3.10907 6 2.84778L6 1.64907C6 1.08748 5.53765 0.635999 4.97622 0.649355L4.86877 0.651911C4.60933 0.658083 4.36245 0.764871 4.18029 0.949713L0.287738 4.89964C0.103358 5.08674 -4.121e-07 5.33887 -4.35064e-07 5.60155L-5.55723e-07 6.98173L-6.79576e-07 8.39845C-7.02541e-07 8.66113 0.103358 8.91326 0.287739 9.10036L4.18029 13.0503Z" fill="currentColor"/>
</svg>
