<svg width="32" height="32" viewBox="0 0 32 32" fill="none" xmlns="http://www.w3.org/2000/svg">
<path d="M15.9998 1.6665C8.08376 1.6665 1.6665 8.08376 1.6665 15.9998C1.6665 23.9159 8.08376 30.3332 15.9998 30.3332C23.9159 30.3332 30.3332 23.9159 30.3332 15.9998C30.3332 8.08376 23.9159 1.6665 15.9998 1.6665Z" fill="#FFC44D"/>
<path fill-rule="evenodd" clip-rule="evenodd" d="M12 9.33301C12 8.78072 12.4477 8.33301 13 8.33301H17C19.3932 8.33301 21.3333 10.2731 21.3333 12.6663C21.3333 15.0596 19.3932 16.9997 17 16.9997H13C12.4477 16.9997 12 16.552 12 15.9997V9.33301ZM14 10.333V14.9997H17C18.2887 14.9997 19.3333 13.955 19.3333 12.6663C19.3333 11.3777 18.2887 10.333 17 10.333H14Z" fill="#1B1B29"/>
<path fill-rule="evenodd" clip-rule="evenodd" d="M12 16C12 15.4477 12.4477 15 13 15H17C19.3932 15 21.3333 16.9401 21.3333 19.3333C21.3333 21.7266 19.3932 23.6667 17 23.6667H13C12.4477 23.6667 12 23.219 12 22.6667V16ZM14 17V21.6667H17C18.2887 21.6667 19.3333 20.622 19.3333 19.3333C19.3333 18.0447 18.2887 17 17 17H14Z" fill="#1B1B29"/>
<path fill-rule="evenodd" clip-rule="evenodd" d="M14.333 5.6665C14.8853 5.6665 15.333 6.11422 15.333 6.6665V9.33317C15.333 9.88546 14.8853 10.3332 14.333 10.3332C13.7807 10.3332 13.333 9.88546 13.333 9.33317V6.6665C13.333 6.11422 13.7807 5.6665 14.333 5.6665Z" fill="#1B1B29"/>
<path fill-rule="evenodd" clip-rule="evenodd" d="M14.333 21.6665C14.8853 21.6665 15.333 22.1142 15.333 22.6665V25.3332C15.333 25.8855 14.8853 26.3332 14.333 26.3332C13.7807 26.3332 13.333 25.8855 13.333 25.3332V22.6665C13.333 22.1142 13.7807 21.6665 14.333 21.6665Z" fill="#1B1B29"/>
<path fill-rule="evenodd" clip-rule="evenodd" d="M17.6665 5.6665C18.2188 5.6665 18.6665 6.11422 18.6665 6.6665V9.33317C18.6665 9.88546 18.2188 10.3332 17.6665 10.3332C17.1142 10.3332 16.6665 9.88546 16.6665 9.33317V6.6665C16.6665 6.11422 17.1142 5.6665 17.6665 5.6665Z" fill="#1B1B29"/>
<path fill-rule="evenodd" clip-rule="evenodd" d="M17.6665 21.6665C18.2188 21.6665 18.6665 22.1142 18.6665 22.6665V25.3332C18.6665 25.8855 18.2188 26.3332 17.6665 26.3332C17.1142 26.3332 16.6665 25.8855 16.6665 25.3332V22.6665C16.6665 22.1142 17.1142 21.6665 17.6665 21.6665Z" fill="#1B1B29"/>
</svg>
