<svg width="25" height="25" viewBox="0 0 25 25" fill="none" xmlns="http://www.w3.org/2000/svg">
<path d="M18.3291 2.88567C18.0381 2.74135 17.7506 2.7733 17.5563 2.82389C17.3628 2.87426 17.175 2.96523 17.0078 3.05811C16.681 3.23962 16.2634 3.5266 15.7679 3.86712L4.89675 11.338C4.57897 11.5563 4.28821 11.7561 4.08108 11.9364C3.8924 12.1007 3.56673 12.4166 3.5597 12.8963C3.55678 13.096 3.60174 13.2935 3.69083 13.4722C3.90483 13.9016 4.33516 14.0453 4.57636 14.1117C4.84116 14.1846 5.18972 14.2388 5.57069 14.2981L9.16235 14.8569L6.76979 19.0824C6.48511 19.5851 6.24366 20.0115 6.09623 20.3433C6.02056 20.5137 5.94805 20.7053 5.91593 20.9005C5.88339 21.0983 5.87957 21.3803 6.04218 21.652C6.15566 21.8416 6.31738 21.9977 6.51085 22.1045C6.78809 22.2575 7.06977 22.2438 7.26628 22.2043C7.4602 22.1653 7.64921 22.0862 7.81679 22.0046C8.14326 21.8456 8.5609 21.5893 9.05331 21.2872L20.0505 14.5402C20.369 14.3448 20.6623 14.1649 20.8739 13.9988C21.0694 13.8453 21.4016 13.5522 21.4373 13.0822C21.4523 12.885 21.4203 12.6871 21.3439 12.5047C21.1619 12.07 20.7542 11.8965 20.5202 11.8125C20.2671 11.7215 19.932 11.6433 19.5682 11.5583L15.695 10.653L18.1483 5.98073C18.4278 5.44845 18.6634 4.99985 18.805 4.65386C18.8774 4.4768 18.9455 4.27957 18.9726 4.08152C18.9999 3.88261 18.9976 3.59327 18.8199 3.32144C18.698 3.13506 18.5286 2.98462 18.3291 2.88567Z" fill="#FFC44D"/>
</svg>
