<svg width="25" height="25" viewBox="0 0 25 25" fill="none" xmlns="http://www.w3.org/2000/svg">
<path d="M10.25 3.5C10.25 3.08579 9.91421 2.75 9.5 2.75C9.08579 2.75 8.75 3.08579 8.75 3.5H10.25ZM16.25 3.5C16.25 3.08579 15.9142 2.75 15.5 2.75C15.0858 2.75 14.75 3.08579 14.75 3.5H16.25ZM10.25 4.75V3.5H8.75V4.75H10.25ZM16.25 4.75V3.5H14.75V4.75H16.25Z" fill="#FFC44D"/>
<path d="M22.25 13.4167V11.25C22.25 9.85547 22.25 9.15821 22.1118 8.58277C21.6729 6.75453 20.2455 5.32707 18.4172 4.88815C17.8418 4.75 17.1445 4.75 15.75 4.75H9.25C7.85547 4.75 7.15821 4.75 6.58277 4.88815C4.75453 5.32707 3.32707 6.75453 2.88815 8.58277C2.75 9.15821 2.75 9.85547 2.75 11.25V13.4167C2.75 16.8485 2.75 18.5644 3.55665 19.8065C3.93827 20.3942 4.43915 20.8951 5.0268 21.2767C6.26893 22.0833 7.98484 22.0833 11.4167 22.0833H13.5833C17.0152 22.0833 18.7311 22.0833 19.9732 21.2767C20.5608 20.8951 21.0617 20.3942 21.4434 19.8065C22.25 18.5644 22.25 16.8485 22.25 13.4167Z" fill="#600EEB"/>
<path d="M11.2504 10.5438C11.4855 9.78288 11.6031 9.40242 11.7294 9.24968C12.1294 8.76618 12.8706 8.76618 13.2706 9.24968C13.3969 9.40242 13.5145 9.78288 13.7496 10.5438C13.8136 10.751 13.8456 10.8546 13.8923 10.9409C14.034 11.2032 14.2853 11.3885 14.5776 11.4465C14.6739 11.4656 14.7841 11.4656 15.0044 11.4656C15.8423 11.4656 16.2613 11.4656 16.4592 11.5559C16.9835 11.7955 17.1973 12.4275 16.926 12.9362C16.8237 13.1281 16.4965 13.3781 15.8421 13.878L15.7357 13.9593C15.5452 14.1048 15.45 14.1775 15.3794 14.2613C15.2094 14.4631 15.126 14.724 15.1475 14.987C15.1564 15.0962 15.1918 15.2107 15.2625 15.4397L15.3176 15.6179C15.5391 16.3346 15.6498 16.693 15.6351 16.8831C15.5865 17.5127 14.9737 17.9402 14.366 17.7683C14.1825 17.7165 13.8845 17.4888 13.2884 17.0334C13.1157 16.9015 13.0294 16.8355 12.9417 16.7924C12.6632 16.6552 12.3368 16.6552 12.0583 16.7924C11.9706 16.8355 11.8843 16.9015 11.7116 17.0334C11.1155 17.4888 10.8175 17.7165 10.634 17.7683C10.0263 17.9402 9.41351 17.5127 9.36488 16.8831C9.3502 16.693 9.46093 16.3346 9.6824 15.6179L9.73748 15.4397C9.80824 15.2107 9.84362 15.0962 9.85254 14.987C9.87401 14.724 9.79063 14.4631 9.62058 14.2613C9.54998 14.1775 9.45475 14.1048 9.26429 13.9593L9.15795 13.878C8.50355 13.3781 8.17634 13.1281 8.07395 12.9362C7.80266 12.4275 8.01647 11.7955 8.54083 11.5559C8.73873 11.4656 9.15767 11.4656 9.99556 11.4656C10.2159 11.4656 10.3261 11.4656 10.4224 11.4465C10.7147 11.3885 10.966 11.2032 11.1077 10.9409C11.1544 10.8546 11.1864 10.751 11.2504 10.5438Z" fill="#FFC44D"/>
</svg>
