<svg width="40" height="40" viewBox="0 0 40 40" fill="none" xmlns="http://www.w3.org/2000/svg">
<g clip-path="url(#clip0_4004_1471)">
<path d="M14.2847 18.4318C14.6521 17.7627 15.0564 17.1166 15.4963 16.4975C15.5256 16.4562 15.598 16.3586 15.6651 16.2685C15.7178 16.1947 15.7719 16.1219 15.8254 16.0487C15.9444 15.8717 15.9964 15.6456 15.9305 15.4039C15.8561 15.1307 15.6242 14.9109 15.347 14.8534C15.0905 14.8002 14.8498 14.873 14.6752 15.0214C14.6752 15.0214 14.4253 15.2226 14.1992 15.3364C13.8401 15.5172 13.4352 15.6216 13.0056 15.6216C12.5543 15.6216 12.1294 15.5082 11.758 15.3082C11.7312 15.2937 11.5611 15.1917 11.4331 15.127C10.6553 14.7338 9.58854 14.4927 8.41229 14.4927C7.09539 14.4927 5.91629 14.7959 5.12493 15.274L5.11327 15.2809C4.98174 15.3615 4.82706 15.4079 4.66154 15.4079C4.37194 15.4079 4.11556 15.2658 3.95832 15.0474L3.95004 15.0353C3.78763 14.8141 3.51161 14.6808 3.20995 14.7232C2.81786 14.7784 2.54199 15.1423 2.54199 15.5382L2.54199 19.8587C2.54199 20.2369 2.79322 20.5894 3.1642 20.663C3.63572 20.7566 4.05337 20.4174 4.09739 19.9729C4.10703 19.8753 4.1167 19.8151 4.11961 19.7992C4.25312 19.0712 4.8909 18.5195 5.65754 18.5195C5.78204 18.5195 5.90312 18.534 6.0192 18.5615C6.03719 18.5657 6.12735 18.5917 6.14116 18.5962C6.80079 18.8065 7.57896 18.9258 8.41229 18.9279C8.98733 18.9294 9.51457 18.859 9.91217 18.7838C10.1142 18.7456 10.2409 18.9899 10.0961 19.1359C7.41556 21.8358 5.68607 25.4793 5.44412 29.5237C5.43522 29.6725 5.55595 29.799 5.70502 29.799H10.815C10.9525 29.799 11.0642 29.6907 11.0706 29.5533C11.2591 25.5219 12.4041 21.7408 14.2847 18.4318Z" fill="#F3596E"/>
<path d="M35.1949 18.4318C35.5623 17.7627 35.9665 17.1166 36.4064 16.4975C36.4358 16.4562 36.5081 16.3586 36.5752 16.2685C36.6279 16.1947 36.6821 16.1219 36.7355 16.0487C36.8546 15.8717 36.9066 15.6456 36.8407 15.4039C36.7662 15.1307 36.5344 14.9109 36.2572 14.8534C36.0007 14.8002 35.76 14.873 35.5854 15.0214C35.5854 15.0214 35.3354 15.2226 35.1094 15.3364C34.7502 15.5172 34.3454 15.6216 33.9157 15.6216C33.4644 15.6216 33.0396 15.5082 32.6682 15.3082C32.6414 15.2937 32.4713 15.1917 32.3433 15.127C31.5655 14.7338 30.4987 14.4927 29.3224 14.4927C28.0055 14.4927 26.8264 14.7959 26.0351 15.274L26.0234 15.2809C25.8919 15.3615 25.7372 15.4079 25.5717 15.4079C25.2821 15.4079 25.0257 15.2658 24.8685 15.0474L24.8602 15.0353C24.6978 14.8141 24.4218 14.6808 24.1201 14.7232C23.728 14.7784 23.4521 15.1423 23.4521 15.5382V19.8587C23.4521 20.2369 23.7034 20.5894 24.0744 20.663C24.5459 20.7566 24.9635 20.4174 25.0075 19.9729C25.0172 19.8753 25.0269 19.8151 25.0298 19.7992C25.1633 19.0712 25.8011 18.5195 26.5677 18.5195C26.6922 18.5195 26.8133 18.534 26.9294 18.5615C26.9473 18.5657 27.0375 18.5917 27.0513 18.5962C27.7109 18.8065 28.4891 18.9258 29.3224 18.9279C29.8975 18.9294 30.4247 18.859 30.8223 18.7838C31.0243 18.7456 31.151 18.9899 31.0062 19.1359C28.3257 21.8358 26.5962 25.4793 26.3543 29.5237C26.3454 29.6725 26.4661 29.799 26.6152 29.799H31.7251C31.8627 29.799 31.9744 29.6907 31.9808 29.5533C32.1693 25.5219 33.3143 21.7408 35.1949 18.4318Z" fill="#F3596E"/>
<path d="M26.7758 15.0007C27.2703 14.1 27.8145 13.2303 28.4066 12.3971C28.4461 12.3415 28.5435 12.2101 28.6338 12.0888C28.7047 11.9894 28.7776 11.8915 28.8496 11.793C29.0099 11.5547 29.0798 11.2504 28.9911 10.925C28.8909 10.5573 28.5788 10.2614 28.2057 10.184C27.8605 10.1124 27.5364 10.2104 27.3015 10.4102C27.3015 10.4102 26.965 10.681 26.6607 10.8342C26.1773 11.0775 25.6324 11.218 25.0541 11.218C24.4466 11.218 23.8747 11.0654 23.3748 10.7962C23.3387 10.7768 23.1098 10.6394 22.9375 10.5523C21.8905 10.023 20.4546 9.69849 18.8713 9.69849C17.0987 9.69849 15.5116 10.1067 14.4464 10.7502L14.4307 10.7595C14.2537 10.8679 14.0455 10.9304 13.8227 10.9304C13.4329 10.9304 13.0878 10.7391 12.8761 10.4452L12.865 10.4289C12.6464 10.1311 12.2749 9.95166 11.8688 10.0088C11.3411 10.0831 10.9697 10.5729 10.9697 11.1058L10.9697 16.9213C10.9697 17.4304 11.3079 17.9049 11.8072 18.004C12.4419 18.1299 13.0041 17.6734 13.0633 17.075C13.0763 16.9436 13.0893 16.8626 13.0933 16.8413C13.273 15.8613 14.1314 15.1187 15.1634 15.1187C15.3309 15.1187 15.4939 15.1383 15.6502 15.1752C15.6744 15.181 15.7957 15.216 15.8143 15.2219C16.7022 15.505 17.7496 15.6656 18.8713 15.6685C19.6454 15.6705 20.355 15.5757 20.8902 15.4745C21.1621 15.4231 21.3327 15.752 21.1377 15.9484C17.5297 19.5826 15.2018 24.4869 14.8761 29.9307C14.8641 30.131 15.0266 30.3013 15.2273 30.3013H22.1054C22.2906 30.3013 22.4409 30.1555 22.4495 29.9706C22.7033 24.5442 24.2445 19.4547 26.7758 15.0007Z" fill="#FF6D81"/>
<path d="M37.5217 15.2208C37.3792 14.69 36.9392 14.2741 36.4003 14.1615C35.9431 14.0696 35.4824 14.1845 35.1434 14.4717C35.0676 14.5315 34.9068 14.6487 34.7896 14.7061C34.2289 14.9887 33.5878 15.0025 32.9582 14.6601C32.8801 14.6165 32.7595 14.5453 32.6618 14.497C31.4846 13.9037 29.7953 13.7269 28.2489 13.9076C28.5027 13.5095 28.7695 13.1071 29.0704 12.6863L29.4346 12.1877C29.7252 11.758 29.8091 11.2433 29.6724 10.7378C29.5024 10.1151 28.9842 9.62567 28.3489 9.4924C27.8054 9.38441 27.2586 9.51768 26.8576 9.86005C26.7795 9.92209 26.5348 10.1082 26.344 10.2047C25.5099 10.6206 24.5759 10.6459 23.6395 10.1335C23.5396 10.076 23.3845 9.98643 23.2558 9.92209C20.7478 8.65371 16.4026 8.74332 14.0577 10.1588C13.8682 10.2805 13.5947 10.2369 13.435 10.014C13.0524 9.4901 12.4171 9.23045 11.7714 9.31088C10.9121 9.43036 10.2641 10.2024 10.2641 11.1055V14.0135C8.41105 13.6248 6.12862 13.8436 4.75052 14.6762L4.51844 14.6165C4.19445 14.1753 3.65217 13.9501 3.10759 14.0237C2.38264 14.1293 1.83691 14.7819 1.83691 15.5379V19.8577C1.83691 20.5884 2.33668 21.218 3.02602 21.3536C3.43733 21.4409 3.86701 21.3398 4.20249 21.094C4.54027 20.8435 4.75856 20.4598 4.81371 19.9267C4.88838 19.5223 5.24339 19.2259 5.65815 19.2259C5.72708 19.2259 5.79372 19.2327 5.92584 19.2695C6.66343 19.5039 7.52166 19.6303 8.40975 19.6326C8.48903 19.6326 8.59358 19.6349 8.68779 19.628C6.34748 22.3945 4.95732 25.8458 4.74018 29.4809C4.72294 29.7429 4.8183 30.0048 4.99983 30.1978C5.1825 30.3931 5.43871 30.5034 5.70525 30.5034H10.8155C11.3325 30.5034 11.7542 30.099 11.776 29.5866C11.9552 25.7493 13.0053 22.1119 14.8987 18.7801L14.9045 18.7709C15.2572 18.1275 15.649 17.5002 16.0683 16.912L16.413 16.4409C16.4816 16.3384 16.5037 16.2213 16.5447 16.1096C17.2831 16.2646 18.0573 16.3727 18.8693 16.3743C19.1634 16.3697 19.4874 16.3605 19.8068 16.3352C16.4635 20.0852 14.4725 24.8532 14.1715 29.8899C14.1542 30.1794 14.2588 30.4644 14.4575 30.6758C14.6575 30.8872 14.9378 31.0066 15.2273 31.0066H22.1058C22.6699 31.0066 23.1306 30.5655 23.1547 30.0025C23.2966 26.9697 23.8877 24.0446 24.824 21.2252C24.922 21.1813 25.0281 21.1566 25.1147 21.0917C25.4525 20.8412 25.6696 20.4598 25.7236 19.9267C25.7983 19.5223 26.1533 19.2259 26.5681 19.2259C26.6382 19.2259 26.7048 19.2327 26.8358 19.2695C27.5722 19.5039 28.4316 19.6303 29.3208 19.6326C29.4035 19.6326 29.5035 19.6349 29.5977 19.628C27.2586 22.3945 25.8672 25.8458 25.6501 29.4809C25.6329 29.7429 25.7282 30.0048 25.9098 30.1978C26.0924 30.3931 26.3486 30.5034 26.6152 30.5034H31.7255C32.2425 30.5034 32.6641 30.099 32.6859 29.5866C32.8652 25.7493 33.9153 22.1119 35.8087 18.7801L35.8132 18.7709C36.1683 18.1275 36.5612 17.5002 36.9782 16.912L37.3206 16.4432C37.5676 16.0779 37.6388 15.6436 37.5217 15.2208ZM13.6683 18.0884C11.7381 21.4892 10.6352 25.1886 10.3893 29.0926H6.18434C6.50833 25.5287 8.06394 22.1854 10.5996 19.6326C10.8833 19.343 10.9465 18.9111 10.7558 18.5549C10.5662 18.2033 10.1745 18.0149 9.78383 18.0907C9.31508 18.1781 8.86242 18.2217 8.43848 18.2217C7.71582 18.1758 6.96444 18.1183 6.36357 17.9276L6.18204 17.8748C4.98259 17.5967 3.65332 18.4285 3.43503 19.628L3.2535 19.8072L3.24776 19.8577L3.38448 15.4598C3.84633 16.1032 4.78728 16.31 5.49041 15.878C6.61403 15.1965 8.72498 15.0512 10.2641 15.4546V16.9212C10.2641 17.7874 10.8546 18.5342 11.6692 18.6951C12.1621 18.7985 12.6572 18.6836 13.0593 18.3872C13.4592 18.0907 13.7165 17.6381 13.7659 17.1464L13.7877 16.9671C13.9059 16.3246 14.4568 15.8617 15.1068 15.835L14.9206 16.0894C14.4679 16.7259 14.0474 17.3968 13.6683 18.0884ZM21.7622 29.5958H15.6064C15.9936 24.6395 18.1271 19.9818 21.6416 16.4432C21.9472 16.133 22.015 15.6666 21.8116 15.2851C21.6094 14.9037 21.1924 14.7061 20.7592 14.7796C20.1078 14.9037 19.5506 15.0025 18.8728 14.9634C17.9409 14.9613 17.0506 14.8274 16.2342 14.5938C16.1558 14.5714 16.0682 14.5629 15.9913 14.5384L15.8121 14.4878C15.4617 14.4061 15.1088 14.4105 14.7667 14.4724C14.5423 14.5098 14.3406 14.6083 14.1307 14.6968C14.0379 14.7384 13.9391 14.7584 13.8509 14.8095C13.13 15.203 12.5557 15.8613 12.4022 16.7029C12.3953 16.7328 12.378 16.8362 12.362 17.0039C12.3516 17.1027 12.2999 17.1923 12.2195 17.2521C12.1655 17.2934 12.077 17.3348 11.9438 17.3118C11.7933 17.2819 11.6749 17.1096 11.6749 16.9212V16.0273V14.466V11.1055C11.6749 10.9078 11.8059 10.7309 11.9679 10.7079C12.1689 10.6918 12.2666 10.8067 12.3034 10.8573C12.8583 11.6293 13.9991 11.8591 14.8103 11.3536C16.7082 10.2116 20.5295 10.122 22.6182 11.1813C22.7239 11.2341 22.8514 11.31 23.0387 11.4157C24.2324 12.0659 25.7363 12.0889 26.9794 11.4639C27.3401 11.2824 27.7043 10.9906 27.7583 10.9469C27.8158 10.8964 27.9203 10.8435 28.0616 10.8757C28.1754 10.8987 28.2799 10.9975 28.3098 11.1078C28.3385 11.2134 28.3236 11.31 28.2799 11.3743L27.8307 11.9878C27.2968 12.7402 26.8147 13.5348 26.3603 14.336C26.2985 14.445 26.2204 14.546 26.1602 14.6555C25.9 15.1138 25.6994 15.603 25.461 16.0731C24.9664 17.0484 24.5085 18.0376 24.1097 19.0567C23.8475 19.7289 23.6015 20.4074 23.3812 21.0948C22.4988 23.8487 21.9272 26.7039 21.7622 29.5958ZM35.8305 16.0894C35.379 16.7259 34.9585 17.3968 34.5793 18.0862C32.648 21.4869 31.5451 25.1863 31.2992 29.0926H27.0943C27.4194 25.5264 28.975 22.1831 31.5095 19.6326C31.7933 19.343 31.8564 18.9111 31.6657 18.5549C31.4762 18.2033 31.0924 18.0149 30.6938 18.0907C30.225 18.1781 29.7735 18.2217 29.3496 18.2217C28.612 18.2355 27.8732 18.116 27.2746 17.9276L27.0931 17.8748C26.7756 17.8011 26.4517 17.814 26.1385 17.8828C26.507 17.0827 26.8763 16.2828 27.3121 15.5063C28.7678 15.0791 30.8158 15.1487 32.0253 15.7562L32.3344 15.9285C33.2696 16.4317 34.4736 16.4501 35.4238 15.9676C35.7098 15.8228 35.9913 15.5816 36.1671 15.6298L35.8305 16.0894Z" fill="#E14B5E"/>
</g>
<defs>
<clipPath id="clip0_4004_1471">
<rect width="40" height="40" fill="white"/>
</clipPath>
</defs>
</svg>
