<svg width="41" height="40" viewBox="0 0 41 40" fill="none" xmlns="http://www.w3.org/2000/svg">
<g clip-path="url(#clip0_4004_1497)">
<path d="M34.6277 22.5621H30.2803V20.9169H34.6277C35.7283 20.9169 36.6245 20.0208 36.6245 18.9201V15.115H38.2697V18.9201C38.2697 20.9284 36.636 22.5621 34.6277 22.5621Z" fill="#525967"/>
<path d="M18.1427 24.4675C22.8015 24.4675 26.5783 20.6907 26.5783 16.0318C26.5783 11.373 22.8015 7.59619 18.1427 7.59619C13.4838 7.59619 9.70703 11.373 9.70703 16.0318C9.70703 20.6907 13.4838 24.4675 18.1427 24.4675Z" fill="#F8C63D"/>
<path d="M18.1426 25.1724C13.1012 25.1724 9.00195 21.0731 9.00195 16.0317C9.00195 10.9904 13.1012 6.89111 18.1426 6.89111C23.1839 6.89111 27.2832 10.9904 27.2832 16.0317C27.2832 21.0731 23.1839 25.1724 18.1426 25.1724ZM18.1426 8.30196C13.8802 8.30196 10.4128 11.7693 10.4128 16.0317C10.4128 20.2941 13.8802 23.7615 18.1426 23.7615C22.405 23.7615 25.8724 20.2941 25.8724 16.0317C25.8724 11.7693 22.405 8.30196 18.1426 8.30196Z" fill="#F39C13"/>
<path d="M30.9104 32.404H5.37596C3.98663 32.404 2.86035 31.2778 2.86035 29.8884V13.3364C2.86035 11.9471 3.98663 10.8208 5.37596 10.8208H30.9104C32.2997 10.8208 33.426 11.9471 33.426 13.3364V29.8884C33.426 31.2778 32.2997 32.404 30.9104 32.404Z" fill="#A77DF1"/>
<path d="M30.9104 12.4679C31.3893 12.4679 31.7789 12.8575 31.7789 13.3365V29.8885C31.7789 30.3674 31.3893 30.757 30.9104 30.757H5.37593C4.89706 30.757 4.50744 30.3674 4.50744 29.8885V13.3365C4.50744 12.8575 4.89706 12.4679 5.37593 12.4679H30.9104ZM30.9104 10.8208H5.37593C3.98663 10.8208 2.86035 11.9472 2.86035 13.3365V29.8885C2.86035 31.2778 3.98663 32.4041 5.37593 32.4041H30.9104C32.2997 32.4041 33.426 31.2778 33.426 29.8885V13.3365C33.426 11.9472 32.2997 10.8208 30.9104 10.8208ZM28.8396 15.4081V27.817H7.44632V15.4081H28.8396ZM29.3103 13.761H6.9757C6.32593 13.761 5.79923 14.2876 5.79923 14.9374V28.2876C5.79923 28.9373 6.32593 29.4641 6.9757 29.4641H29.3103C29.96 29.4641 30.4867 28.9373 30.4867 28.2876V14.9374C30.4867 14.2876 29.96 13.761 29.3103 13.761Z" fill="#8C62D6"/>
<path d="M28.0168 16.231V26.9938H21.4356V16.231H28.0168ZM8.26953 26.9938H14.8507V16.231H8.26953V26.9938ZM14.8507 26.9938H21.4356V16.231H14.8507V26.9938Z" fill="white"/>
<path d="M22.2556 15.4089H20.6126H15.6724H14.0295H7.44629V27.817H14.0295H15.6724H20.6126H22.2556H28.8388V15.4089H22.2556ZM14.0272 26.1718H9.09151V17.0542H14.0272V26.1718ZM20.6104 26.1718H15.6747V17.0542H20.6104V26.1718ZM27.1935 26.1718H22.2579V17.0542H27.1935V26.1718Z" fill="#525967"/>
<path d="M24.7262 22.7244C24.1146 22.7244 23.6143 22.2241 23.6143 21.6126C23.6143 21.0011 24.1146 20.5007 24.7262 20.5007C25.3377 20.5007 25.838 21.0011 25.838 21.6126C25.838 22.2241 25.3377 22.7244 24.7262 22.7244ZM12.6719 21.6126C12.6719 21.0011 12.1716 20.5007 11.5601 20.5007C10.9486 20.5007 10.4482 21.0011 10.4482 21.6126C10.4482 22.2241 10.9486 22.7244 11.5601 22.7244C12.1716 22.7244 12.6719 22.2241 12.6719 21.6126ZM19.255 21.6126C19.255 21.0011 18.7546 20.5007 18.1431 20.5007C17.5316 20.5007 17.0313 21.0011 17.0313 21.6126C17.0313 22.2241 17.5316 22.7244 18.1431 22.7244C18.7546 22.7244 19.255 22.2241 19.255 21.6126Z" fill="#E24C5F"/>
<path d="M37.3983 15.7919C37.8075 15.7919 38.1393 15.4601 38.1393 15.0508C38.1393 14.6416 37.8075 14.3098 37.3983 14.3098C36.989 14.3098 36.6572 14.6416 36.6572 15.0508C36.6572 15.4601 36.989 15.7919 37.3983 15.7919Z" fill="#F3596E"/>
<path d="M37.3989 14.3099C37.8082 14.3099 38.14 14.6416 38.14 15.0509C38.14 15.4601 37.8082 15.792 37.3989 15.792C36.9897 15.792 36.6579 15.4601 36.6579 15.0509C36.6579 14.6416 36.9897 14.3099 37.3989 14.3099ZM37.3989 12.8982C36.2119 12.8982 35.2461 13.8638 35.2461 15.0509C35.2461 16.238 36.2119 17.2037 37.3989 17.2037C38.5859 17.2037 39.5517 16.238 39.5517 15.0509C39.5517 13.8638 38.5859 12.8982 37.3989 12.8982Z" fill="#E24C5F"/>
</g>
<defs>
<clipPath id="clip0_4004_1497">
<rect width="40" height="40" fill="white" transform="translate(0.5)"/>
</clipPath>
</defs>
</svg>
