<svg width="32" height="32" viewBox="0 0 32 32" fill="none" xmlns="http://www.w3.org/2000/svg">
<g clip-path="url(#clip0_4004_3884)">
<path d="M17.016 5.36681C16.8589 5.12994 16.5935 4.98755 16.3092 4.98755C16.025 4.98755 15.7596 5.12994 15.6024 5.36681L13.8161 8.05908L10.7036 8.92599C10.4298 9.00227 10.2124 9.21064 10.1245 9.48099C10.0367 9.75135 10.0901 10.0477 10.2668 10.2704L12.2753 12.8012L12.138 16.0293C12.1259 16.3133 12.2569 16.5845 12.4869 16.7515C12.7169 16.9186 13.0152 16.9594 13.2816 16.8602L16.3092 15.732L19.3368 16.8602C19.6032 16.9594 19.9016 16.9186 20.1316 16.7515C20.3616 16.5845 20.4925 16.3133 20.4805 16.0293L20.3431 12.8012L22.3516 10.2704C22.5283 10.0477 22.5818 9.75135 22.4939 9.48099C22.4061 9.21064 22.1887 9.00227 21.9148 8.92599L18.8023 8.05908L17.016 5.36681Z" fill="#FFC44D"/>
<path d="M10.7956 16.6764C10.6384 16.4395 10.3731 16.2971 10.0888 16.2971C9.80455 16.2971 9.53918 16.4395 9.38202 16.6764L7.79183 19.0731L5.02103 19.8448C4.74719 19.9211 4.52976 20.1295 4.44191 20.3998C4.35407 20.6702 4.4075 20.9666 4.58421 21.1892L6.37221 23.4422L6.24996 26.3159C6.23787 26.5999 6.36886 26.8711 6.59884 27.0382C6.82881 27.2052 7.1272 27.246 7.39357 27.1468L10.0888 26.1425L12.7841 27.1468C13.0504 27.246 13.3488 27.2052 13.5788 27.0382C13.8088 26.8711 13.9397 26.5999 13.9277 26.3159L13.8054 23.4422L15.5934 21.1892C15.7701 20.9666 15.8236 20.6702 15.7357 20.3998C15.6479 20.1295 15.4304 19.9211 15.1566 19.8448L12.3858 19.0731L10.7956 16.6764Z" fill="#FFC44D"/>
<path d="M23.236 16.6764C23.0789 16.4395 22.8135 16.2971 22.5292 16.2971C22.245 16.2971 21.9796 16.4395 21.8225 16.6764L20.2323 19.0731L17.4615 19.8448C17.1876 19.9211 16.9702 20.1295 16.8823 20.3998C16.7945 20.6702 16.8479 20.9666 17.0246 21.1892L18.8126 23.4422L18.6904 26.3159C18.6783 26.5999 18.8093 26.8711 19.0393 27.0382C19.2692 27.2052 19.5676 27.246 19.834 27.1468L22.5292 26.1425L25.2245 27.1468C25.4909 27.246 25.7892 27.2052 26.0192 27.0382C26.2492 26.8711 26.3802 26.5999 26.3681 26.3159L26.2458 23.4422L28.0338 21.1892C28.2106 20.9666 28.264 20.6702 28.1761 20.3998C28.0883 20.1295 27.8709 19.9211 27.597 19.8448L24.8262 19.0731L23.236 16.6764Z" fill="#FFC44D"/>
</g>
<defs>
<clipPath id="clip0_4004_3884">
<rect width="32" height="32" fill="white"/>
</clipPath>
</defs>
</svg>
