<svg width="41" height="40" viewBox="0 0 41 40" fill="none" xmlns="http://www.w3.org/2000/svg">
<g clip-path="url(#clip0_4004_1517)">
<path d="M11.5817 28.2922C12.4462 25.546 11.4545 24.7577 10.9206 17.3581C10.3866 9.95859 13.5651 4.38985 18.7524 3.32188C23.9397 2.2539 26.4062 5.6104 26.4062 5.6104C26.4062 5.6104 29.2964 8.02611 29.839 13.7982C30.4075 19.8453 28.8219 26.7065 29.839 28.8837" fill="#F39C13"/>
<path d="M20.4993 5.08667C17.1605 5.08667 14.4287 7.81846 14.4287 11.1573V16.201C14.4287 18.2728 15.483 20.1081 17.0792 21.2047V27.9361H23.9196V21.2045C25.5157 20.1079 26.5701 18.2728 26.5701 16.201V11.1573C26.5701 7.81846 23.8383 5.08667 20.4993 5.08667Z" fill="#E7C6A8"/>
<path d="M20.5008 4.38159C16.7646 4.38159 13.7246 7.42157 13.7246 11.1578V16.2014C13.7246 18.3779 14.7741 20.2967 16.374 21.5374V27.9363C16.374 28.3269 16.6888 28.6417 17.0794 28.6417H23.9199C24.3105 28.6417 24.6253 28.3269 24.6253 27.9363V21.5392C26.2265 20.2987 27.277 18.3789 27.277 16.2014V11.1578C27.277 7.42157 24.237 4.38159 20.5008 4.38159ZM23.2145 27.2309H17.7848V22.4002C18.6179 22.7668 19.5339 22.9776 20.5008 22.9776C21.4667 22.9776 22.3821 22.7674 23.2145 22.4015V27.2309ZM25.8662 16.2014C25.8662 17.4925 25.3885 18.6628 24.6253 19.5898C24.4282 19.8292 24.2122 20.0504 23.9789 20.252C23.9741 20.2562 23.9689 20.2601 23.9639 20.2644C23.7311 20.4641 23.4813 20.6449 23.2145 20.8031C22.4152 21.2766 21.4947 21.5668 20.5008 21.5668C19.5059 21.5668 18.5846 21.2761 17.7848 20.8018C17.5175 20.6432 17.2675 20.462 17.0344 20.2616C17.03 20.2579 17.0254 20.2545 17.0211 20.2506C16.7876 20.0487 16.5714 19.8272 16.3741 19.5872C15.6122 18.6607 15.1355 17.4912 15.1355 16.2014V11.1578C15.1355 8.20053 17.5435 5.79244 20.5008 5.79244C23.4581 5.79244 25.8662 8.20053 25.8662 11.1578V16.2014Z" fill="#CBAA8C"/>
<path d="M30.3974 22.5205C30.595 19.7907 30.8202 16.6979 30.5422 13.7314C29.9815 7.75945 27.0059 5.19281 26.976 5.19281C26.8634 5.04116 24.1819 1.47728 18.6097 2.63077C17.9915 2.75758 17.4093 2.9651 16.8447 3.20838C16.6856 3.27674 16.5325 3.35257 16.3781 3.42954C15.9489 3.64468 15.5386 3.89269 15.1465 4.17432C15.0259 4.26048 14.8981 4.33315 14.7813 4.42521C14.3377 4.7772 13.9239 5.17587 13.5365 5.61259C13.3574 5.81264 13.1976 6.03438 13.0313 6.25081C12.8344 6.50988 12.6454 6.77729 12.467 7.05977C12.279 7.35403 12.0963 7.64987 11.93 7.96754C11.8456 8.13069 11.7754 8.30877 11.6965 8.47823C11.3195 9.2793 11.0105 10.1403 10.7715 11.0625C10.7541 11.1302 10.7289 11.1906 10.7122 11.259C10.7111 11.2636 10.7141 11.2719 10.7141 11.2719C10.2588 13.1305 10.0566 15.1825 10.2182 17.4079C10.4342 20.4318 10.7283 22.3596 10.942 23.7682C11.2476 25.7719 11.374 26.6014 10.9075 28.0811C10.7903 28.4511 10.9971 28.8486 11.3694 28.9658C11.7255 29.083 12.1368 28.8762 12.254 28.5039C12.8193 26.714 12.6584 25.657 12.339 23.5545C12.1276 22.1712 11.8381 20.2732 11.6244 17.3068C11.4933 15.4955 11.6056 13.8022 11.9132 12.2578C12.9836 12.5101 14.2023 12.7181 15.5927 12.7181C17.3161 12.7181 19.2278 12.4263 21.1879 11.6014C24.5686 10.1777 26.0727 8.40915 26.7396 7.04728C27.5705 8.15166 28.8045 10.3269 29.1359 13.8647C29.4025 16.7117 29.1842 19.7447 28.9889 22.4194C28.7683 25.4731 28.5936 27.8858 29.2003 29.1818C29.3197 29.4391 29.5748 29.5885 29.839 29.5885C29.9401 29.5885 30.0413 29.5678 30.1378 29.5219C30.4916 29.3564 30.6433 28.9382 30.4778 28.5844C30.0275 27.6193 30.2067 25.1446 30.3974 22.5205ZM20.641 10.3008C17.4753 11.6286 14.4428 11.422 12.2647 10.9192C12.2664 10.9135 12.2675 10.9074 12.2693 10.9017C12.3913 10.4891 12.5336 10.0969 12.686 9.71559C12.7505 9.55575 12.8214 9.40295 12.8914 9.24857C13.1097 8.76043 13.3557 8.30532 13.6232 7.87664C13.789 7.61426 13.954 7.35159 14.1378 7.1119C14.283 6.92076 14.4374 6.74311 14.5932 6.56733C14.8554 6.27465 15.1301 6.0002 15.4221 5.75118C15.5173 5.66932 15.6045 5.57425 15.7027 5.49727C16.1073 5.18305 16.5439 4.92139 16.9983 4.69304C17.12 4.63143 17.2444 4.57528 17.3695 4.52042C17.8563 4.30773 18.3588 4.12448 18.8947 4.01405C19.4468 3.89944 19.9591 3.84616 20.4429 3.82864C20.5914 3.82333 20.723 3.83783 20.8652 3.84013C21.1897 3.84573 21.5088 3.85765 21.8006 3.89872C21.9397 3.91811 22.067 3.94755 22.1987 3.97369C22.4723 4.02841 22.7381 4.08973 22.9804 4.16843C23.0827 4.20146 23.1806 4.2365 23.2773 4.27283C23.5349 4.37035 23.7785 4.47518 23.9976 4.5895C24.0495 4.6165 24.1036 4.64249 24.1532 4.67007C24.9173 5.09487 25.4211 5.56764 25.6999 5.86851C25.3408 6.99227 24.198 8.80136 20.641 10.3008Z" fill="#E68A16"/>
<path d="M18.8951 4.01415C15.7609 4.65753 13.3712 7.15753 12.2637 10.919C14.442 11.4222 17.4751 11.629 20.6414 10.3009C24.2007 8.80045 25.3427 6.98979 25.7012 5.86617C25.1543 5.25036 22.9576 3.16856 18.8951 4.01415Z" fill="#F8C63D"/>
<path d="M8.49138 28.9674C8.91184 30.8453 9.53716 34.1906 9.58067 37.5864H6.17521C4.87571 37.5864 3.82227 36.533 3.82227 35.2335V34.2517C3.82227 32.3518 4.92444 30.6244 6.64747 29.824L8.49138 28.9674ZM20.4491 26.9698C17.339 26.7064 16.3552 23.1484 16.3552 23.1484C16.3552 23.1484 15.8975 24.5795 15.2873 25.5967C15.1196 25.8759 14.4502 26.2694 13.5534 26.7064C14.4547 28.2856 15.5389 30.2173 16.3552 31.7757C17.3863 33.7439 18.5861 36.0791 19.3613 37.5933H21.6379C22.4131 36.0791 23.613 33.7439 24.644 31.7757C25.4603 30.2173 26.5445 28.2856 27.4458 26.7064C26.549 26.2694 25.8796 25.8759 25.712 25.5967C25.1017 24.5795 24.6513 23.1556 24.6513 23.1556C24.6513 23.1556 23.6602 26.7064 20.5501 26.9698H20.4491ZM32.5078 28.9674C32.0873 30.8453 31.462 34.1906 31.4185 37.5864H34.824C36.1235 37.5864 37.1769 36.533 37.1769 35.2335V34.2517C37.1769 32.3518 36.0747 30.6244 34.3517 29.824L32.5078 28.9674Z" fill="white"/>
<path d="M7.46571 31.0005C7.72995 32.4282 8.00281 34.2584 8.11648 36.1746H6.17521C5.65626 36.1746 5.23404 35.7524 5.23404 35.2335V34.2517C5.23404 32.9065 6.02233 31.6711 7.24224 31.1043L7.46571 31.0005ZM8.49138 28.9674L6.64748 29.824C4.92449 30.6245 3.82227 32.3518 3.82227 34.2517V35.2335C3.82227 36.5329 4.87573 37.5864 6.17521 37.5864H9.58068C9.53717 34.1906 8.91188 30.8453 8.49138 28.9674ZM25.712 25.5967C25.1018 24.5795 24.6514 23.1556 24.6514 23.1556C24.6514 23.1556 23.7836 26.1512 21.206 26.8229V26.4611H19.7952V26.823C17.2172 26.1512 16.3552 23.1484 16.3552 23.1484C16.3552 23.1484 15.8975 24.5795 15.2873 25.5967C15.1197 25.8759 14.4502 26.2694 13.5535 26.7064C14.4548 28.2856 15.5389 30.2172 16.3552 31.7756C17.3864 33.7439 18.5861 36.079 19.3613 37.5932H19.7952L21.206 37.594L21.638 37.5932C22.4132 36.079 23.613 33.7439 24.6441 31.7756C25.4604 30.2172 26.5446 28.2856 27.4458 26.7064C26.5491 26.2694 25.8796 25.8759 25.712 25.5967ZM17.6059 31.1206C17.0632 30.0846 16.3538 28.7895 15.4905 27.2593C16.0006 26.9341 16.3051 26.6442 16.4978 26.323C16.4975 26.3234 16.4981 26.3226 16.4978 26.323C17.2386 27.2084 18.3223 27.9959 19.7952 28.2699V35.3463C19.114 34.0213 18.3229 32.4891 17.6059 31.1206ZM23.3935 31.1206C22.6772 32.4878 21.8867 34.0182 21.206 35.3425V28.2698C22.6776 27.9956 23.761 27.2086 24.5028 26.3253C24.6956 26.6455 24.9997 26.9348 25.5088 27.2595C24.6448 28.791 23.9354 30.0861 23.3935 31.1206ZM33.5335 31.0006L33.7569 31.1043C34.9768 31.671 35.7651 32.9065 35.7651 34.2517V35.2335C35.7651 35.7524 35.3429 36.1746 34.824 36.1746H32.8828C32.9964 34.2587 33.2693 32.4284 33.5335 31.0006ZM32.5078 28.9674C32.0874 30.8453 31.462 34.1906 31.4186 37.5864H34.824C36.1235 37.5864 37.1769 36.5329 37.1769 35.2335V34.2517C37.1769 32.3518 36.0748 30.6245 34.3517 29.824L32.5078 28.9674Z" fill="#DADCDF"/>
<path d="M27.4462 26.7064C28.8911 27.4103 30.933 28.2276 32.5264 28.8836C32.106 30.7457 31.463 34.1436 31.4189 37.5864C31.3006 37.5876 31.2002 37.6001 31.0777 37.5986L21.6383 37.5932C22.4135 36.079 23.6133 33.7439 24.6444 31.7757C25.4607 30.2172 26.5449 28.2855 27.4462 26.7064ZM23.0303 25.8216L21.5506 26.6759C20.9005 27.0512 20.0995 27.0512 19.4494 26.6759L17.9699 25.8216C17.6897 25.6598 17.3394 25.862 17.3394 26.1856V29.1478C17.3394 29.4712 17.6897 29.6734 17.9699 29.5116L19.4495 28.6574C20.0995 28.2821 20.9004 28.2821 21.5505 28.6574L23.0303 29.5116C23.3105 29.6734 23.6606 29.4712 23.6606 29.1478V26.1856C23.6606 25.862 23.3105 25.6598 23.0303 25.8216ZM13.5538 26.7064C12.1089 27.4103 10.067 28.2276 8.47363 28.8836C8.89394 30.7457 9.53699 34.1436 9.58109 37.5864C9.69939 37.5876 9.79981 37.6001 9.92228 37.5986L19.3617 37.5932C18.5865 36.079 17.3866 33.7439 16.3556 31.7757C15.5393 30.2172 14.4551 28.2855 13.5538 26.7064Z" fill="#656C78"/>
<path d="M28.0325 28.5327C28.9478 28.9387 29.9533 29.3542 30.9005 29.7426C30.5709 31.3891 30.1887 33.7205 30.0544 36.1862L23.9492 36.1827C24.5701 34.9764 25.2642 33.6348 25.895 32.4306C26.4369 31.3961 27.154 30.0885 28.0325 28.5327ZM27.4462 26.7063C26.5449 28.2855 25.4607 30.2171 24.6444 31.7756C23.6133 33.7438 22.4135 36.0789 21.6383 37.5932L31.0777 37.5985C31.0846 37.5986 31.0915 37.5986 31.0983 37.5986C31.2116 37.5986 31.3073 37.5874 31.4189 37.5863C31.463 34.1436 32.106 30.7456 32.5264 28.8835C30.933 28.2275 28.891 27.4103 27.4462 26.7063ZM23.2399 30.2754C23.0469 30.2754 22.8562 30.2248 22.6792 30.1237L21.1972 29.2689C20.7698 29.0208 20.2367 29.0208 19.8001 29.2689L18.3226 30.1237C17.9757 30.3236 17.5483 30.3213 17.1967 30.1237C16.8497 29.9215 16.6337 29.5493 16.6337 29.1471V26.1853C16.6337 25.7832 16.8497 25.4086 17.199 25.2087C17.5552 25.0065 17.9803 25.0111 18.3249 25.2133L19.8001 26.0635C20.2321 26.3117 20.7652 26.3117 21.1972 26.0635L22.6746 25.211C23.0216 25.0088 23.4513 25.0088 23.8029 25.2087C24.1498 25.4086 24.3658 25.7832 24.3658 26.1853V29.1471C24.3658 29.5539 24.1567 29.9192 23.8052 30.1237C23.6282 30.2248 23.4329 30.2754 23.2399 30.2754ZM20.5009 27.672C20.9881 27.672 21.4729 27.796 21.9049 28.0465L22.955 28.6531V26.6816L21.9026 27.2859C21.0363 27.7869 19.961 27.7869 19.0947 27.2859L18.0446 26.6816V28.6531L19.0947 28.0465C19.529 27.796 20.0161 27.672 20.5009 27.672ZM12.9674 28.5327C13.8452 30.087 14.5624 31.3947 15.105 32.4307C15.7356 33.6345 16.4295 34.9758 17.0503 36.1818L10.9453 36.1827C10.8108 33.7185 10.4289 31.3885 10.0995 29.7426C11.0466 29.3542 12.0522 28.9387 12.9674 28.5327ZM13.5538 26.7063C12.1089 27.4103 10.0669 28.2275 8.47363 28.8835C8.89391 30.7456 9.53694 34.1436 9.5811 37.5863C9.69261 37.5874 9.7884 37.5986 9.90164 37.5986C9.90846 37.5986 9.91528 37.5986 9.92225 37.5985L19.3617 37.5932C18.5864 36.0789 17.3866 33.7438 16.3556 31.7756C15.5393 30.2171 14.4551 28.2855 13.5538 26.7063Z" fill="#525968"/>
</g>
<defs>
<clipPath id="clip0_4004_1517">
<rect width="40" height="40" fill="white" transform="translate(0.5)"/>
</clipPath>
</defs>
</svg>
