<svg width="33" height="32" viewBox="0 0 33 32" fill="none" xmlns="http://www.w3.org/2000/svg">
<g clip-path="url(#clip0_4004_11124)">
<path d="M29.8417 14.6901C29.8417 14.8945 29.8284 15.0957 29.8112 15.2956C29.6545 13.4463 28.1098 11.9767 26.2219 11.9767H25.916C23.925 11.9767 22.2963 13.6056 22.2963 15.5965V18.5149L21.4536 19.2123C21.3012 19.3386 21.0742 19.3113 20.9557 19.1529L20.3415 18.3307C20.1563 18.0828 19.8652 17.9369 19.5558 17.9369H19.5521C19.2414 17.9369 18.9547 18.0785 18.7653 18.3303L18.3037 18.9459C18.1652 19.1306 17.8879 19.1304 17.7496 18.9454L17.2909 18.3318C17.1051 18.0833 16.8129 17.9369 16.5025 17.9369H16.4997V11.9767C17.5565 9.48897 20.0224 7.74414 22.8957 7.74414C26.7319 7.74414 29.8417 10.854 29.8417 14.6901ZM16.4997 17.9369C16.1872 17.9369 15.8996 18.0822 15.7139 18.3322L15.2556 18.9452C15.1172 19.1303 14.8399 19.1304 14.7014 18.9455L14.2393 18.3286C14.0546 18.0821 13.7646 17.937 13.4566 17.937H13.4529C13.1428 17.937 12.8508 18.0831 12.6649 18.3313L12.0492 19.1536C11.9307 19.3119 11.704 19.3389 11.5517 19.213L10.6349 18.4553C10.3242 18.1943 9.88855 18.1796 9.55583 18.4094C9.22495 18.6392 9.08892 19.0509 9.20473 19.391L10.1275 23.0105C10.2783 23.5932 10.8022 23.9995 11.4033 23.9995H16.4998L16.4997 17.9369C16.5002 17.9369 16.4994 17.9369 16.4997 17.9369Z" fill="#6C9AF5"/>
<path d="M23.7878 19.4333L22.8779 23.0086C22.729 23.5914 22.2033 23.9995 21.6003 23.9995H16.5002V17.937H16.5029C16.8133 17.937 17.1055 18.0833 17.2913 18.3319L17.75 18.9455C17.8883 19.1304 18.1656 19.1306 18.3041 18.9459L18.7658 18.3303C18.9551 18.0785 19.2419 17.937 19.5525 17.937H19.5562C19.8655 17.937 20.1567 18.0829 20.3419 18.3307L20.9562 19.1529C21.0746 19.3114 21.3016 19.3386 21.4541 19.2124L22.3687 18.4553C22.6849 18.1943 23.1187 18.1814 23.4496 18.4094C23.7805 18.6392 23.9165 19.0509 23.7878 19.4333ZM12.0496 19.1536L12.6653 18.3313C12.8512 18.0831 13.1432 17.9369 13.4532 17.9369H13.4569C13.7649 17.9369 14.055 18.082 14.2397 18.3286L14.7017 18.9454C14.8403 19.1304 15.1176 19.1303 15.256 18.9452L15.7143 18.3321C15.8999 18.0821 16.1877 17.937 16.5002 17.937C16.4998 17.937 16.5006 17.937 16.5002 17.937L16.5001 11.9767C15.4434 9.48897 12.9775 7.74414 10.1041 7.74414C6.26792 7.74414 3.1582 10.854 3.1582 14.6901C3.1582 14.8945 3.17142 15.0957 3.18876 15.2956C3.34536 13.4463 4.89005 11.9767 6.77792 11.9767H7.08387C9.07479 11.9767 10.7037 13.6056 10.7037 15.5965V18.5119L11.552 19.213C11.7044 19.3389 11.9311 19.3118 12.0496 19.1536Z" fill="#FF6D81"/>
<path d="M19.5534 19.1625L20.0515 19.8291C20.3287 20.1999 20.7706 20.4213 21.2337 20.4213C21.5762 20.4213 21.9103 20.3009 22.1742 20.0824L22.5327 19.7857L21.7837 22.729C21.7625 22.812 21.6871 22.87 21.6004 22.87H17.6296V20.1586C17.7579 20.1947 17.8917 20.2138 18.0272 20.2138C18.4892 20.2138 18.9305 19.9931 19.2077 19.6236L19.5534 19.1625ZM19.5562 17.9369H19.5526C19.2419 17.9369 18.9551 18.0785 18.7658 18.3303L18.3041 18.9459C18.2349 19.0382 18.131 19.0843 18.0272 19.0843C17.9232 19.0843 17.8193 19.038 17.7501 18.9455L17.2913 18.3319C17.1055 18.0833 16.8132 17.9369 16.5029 17.9369H16.5002V23.9994H21.6004C22.2033 23.9994 22.729 23.5913 22.8779 23.0086L23.7879 19.4332C23.9165 19.0509 23.7805 18.6391 23.4496 18.4094C23.2942 18.3023 23.1159 18.2483 22.9378 18.2483C22.737 18.2483 22.5364 18.3169 22.3687 18.4553L21.4541 19.2124C21.3894 19.2659 21.3113 19.2919 21.2337 19.2919C21.1285 19.2919 21.0244 19.2441 20.9562 19.1529L20.3419 18.3307C20.1568 18.0829 19.8655 17.9369 19.5562 17.9369ZM11.8332 19.2785V15.5965C11.8332 12.9778 9.70267 10.8473 7.08387 10.8473H6.77792C6.37833 10.8473 5.98828 10.8988 5.61489 10.9955C6.68256 9.7006 8.29871 8.87362 10.1042 8.87362C12.3697 8.87362 14.4133 10.1788 15.3707 12.2171V18.7917L15.7143 18.3321C15.8999 18.0821 16.1877 17.9369 16.5002 17.9369C16.4998 17.9369 16.5006 17.9369 16.5002 17.9369L16.5001 11.9767C15.4434 9.48897 12.9775 7.74414 10.1042 7.74414C6.26804 7.74414 3.1582 10.854 3.1582 14.6901C3.1582 14.8945 3.17142 15.0957 3.18876 15.2956C3.34536 13.4463 4.89005 11.9767 6.77792 11.9767H7.08387C9.07479 11.9767 10.7037 13.6056 10.7037 15.5965V18.5119L11.552 19.213C11.6345 19.2812 11.7361 19.2966 11.8332 19.2785Z" fill="#E14B5E"/>
<path d="M29.8417 14.6901C29.8417 14.8945 29.8285 15.0957 29.8112 15.2956C29.6546 13.4463 28.1098 11.9767 26.222 11.9767H25.916C23.9251 11.9767 22.2962 13.6056 22.2962 15.5965V18.5149L21.4536 19.2123C21.3693 19.2822 21.2657 19.2952 21.1668 19.2748V15.5965C21.1668 12.9778 23.2973 10.8473 25.916 10.8473H26.222C26.6216 10.8473 27.0117 10.8988 27.385 10.9955C26.3174 9.7006 24.7012 8.87362 22.8957 8.87362C20.6302 8.87362 18.5867 10.1788 17.6292 12.2173V18.7844L17.2908 18.3318C17.1051 18.0833 16.8129 17.9369 16.5025 17.9369H16.4997V11.9767C17.5566 9.48897 20.0225 7.74414 22.8957 7.74414C26.7319 7.74414 29.8417 10.854 29.8417 14.6901ZM13.4531 19.163L12.9532 19.8306C12.6761 20.2007 12.2345 20.4218 11.7719 20.4218C11.4299 20.4218 11.0962 20.3017 10.8324 20.0838L10.4671 19.7818L11.2219 22.7314C11.2426 22.8115 11.3176 22.87 11.4033 22.87H15.3703V20.1599C15.2437 20.1951 15.1119 20.2135 14.9783 20.2135C14.516 20.2135 14.0746 19.9926 13.7974 19.6226L13.4531 19.163ZM16.4997 17.9369L16.4998 23.9994H11.4033C10.8022 23.9994 10.2783 23.5932 10.1275 23.0105L9.20473 19.391C9.08892 19.0509 9.22495 18.6391 9.55583 18.4094C9.71191 18.3015 9.89062 18.2476 10.0685 18.2476C10.2698 18.2476 10.4699 18.3168 10.6349 18.4553L11.5516 19.213C11.6163 19.2664 11.6944 19.2923 11.7719 19.2923C11.8769 19.2923 11.981 19.2447 12.0492 19.1537L12.6649 18.3313C12.8507 18.0831 13.1427 17.9369 13.4529 17.9369H13.4566C13.7646 17.9369 14.0546 18.0821 14.2392 18.3286L14.7013 18.9455C14.7706 19.0379 14.8744 19.0841 14.9783 19.0841C15.0823 19.0841 15.1863 19.0378 15.2556 18.9453L15.7139 18.3321C15.8996 18.0821 16.1872 17.9369 16.4997 17.9369C16.5002 17.9369 16.4994 17.9369 16.4997 17.9369Z" fill="#4C7AD5"/>
<path d="M29.2747 14.8165C30.1944 14.8165 30.94 14.0709 30.94 13.1512C30.94 12.2314 30.1944 11.4858 29.2747 11.4858C28.355 11.4858 27.6094 12.2314 27.6094 13.1512C27.6094 14.0709 28.355 14.8165 29.2747 14.8165Z" fill="#FF6D81"/>
<path d="M3.72489 14.8165C4.64463 14.8165 5.39022 14.0709 5.39022 13.1512C5.39022 12.2314 4.64463 11.4858 3.72489 11.4858C2.80516 11.4858 2.05957 12.2314 2.05957 13.1512C2.05957 14.0709 2.80516 14.8165 3.72489 14.8165Z" fill="#6C9AF5"/>
<path d="M29.2747 15.3814C28.0449 15.3814 27.0449 14.3814 27.0449 13.1517C27.0449 11.9219 28.0449 10.9219 29.2747 10.9219C30.5045 10.9219 31.5045 11.9219 31.5045 13.1517C31.5045 14.3814 30.5045 15.3814 29.2747 15.3814ZM29.2747 12.0506C28.6681 12.0506 28.1736 12.545 28.1736 13.1517C28.1736 13.7583 28.6681 14.2528 29.2747 14.2528C29.8813 14.2528 30.3758 13.7583 30.3758 13.1517C30.3758 12.545 29.8813 12.0506 29.2747 12.0506Z" fill="#E14B5E"/>
<path d="M3.7249 15.3814C2.49512 15.3814 1.49512 14.3814 1.49512 13.1517C1.49512 11.9219 2.49512 10.9219 3.7249 10.9219C4.95468 10.9219 5.95468 11.9219 5.95468 13.1517C5.95468 14.3814 4.95468 15.3814 3.7249 15.3814ZM3.7249 12.0506C3.11828 12.0506 2.62379 12.545 2.62379 13.1517C2.62379 13.7583 3.11828 14.2528 3.7249 14.2528C4.33151 14.2528 4.826 13.7583 4.826 13.1517C4.826 12.545 4.33151 12.0506 3.7249 12.0506Z" fill="#4C7AD5"/>
</g>
<defs>
<clipPath id="clip0_4004_11124">
<rect width="32" height="32" fill="white" transform="translate(0.5)"/>
</clipPath>
</defs>
</svg>
