<svg width="40" height="40" viewBox="0 0 40 40" fill="none" xmlns="http://www.w3.org/2000/svg">
<g clip-path="url(#clip0_4004_1561)">
<path d="M20.0009 37.4907C10.403 37.4907 2.56752 29.7126 2.51008 20.1032C2.48251 15.4318 4.27479 11.0293 7.56063 7.70435C10.8442 4.38174 15.2261 2.53661 19.8975 2.50903C19.932 2.50903 19.9664 2.50903 19.9986 2.50903C29.5988 2.50903 37.4342 10.2871 37.4894 19.8964C37.5468 29.5403 29.7458 37.4332 20.102 37.4907C20.0675 37.4907 20.0331 37.4907 20.0009 37.4907Z" fill="#525967"/>
<path d="M19.3491 9.24946C18.9431 9.27588 18.3455 9.34686 17.5508 9.52339C16.7232 9.70726 15.9367 10.0053 15.1968 10.3781C14.8672 10.5442 14.4647 10.4117 14.2802 10.0921L11.609 5.46551C14.0765 4.03784 16.9394 3.21578 19.9982 3.21509L20.0005 3.21734L20.0005 8.54322C20.0005 8.91347 19.7185 9.22542 19.3491 9.24946ZM10.0953 14.2812L5.46568 11.6083C4.03639 14.0784 3.21751 16.944 3.21777 19.9999L8.55806 19.9999C8.94035 19.9999 9.24104 19.6959 9.26532 19.3144C9.35822 17.8544 9.74577 16.4752 10.3651 15.23C10.5356 14.8873 10.4268 14.4726 10.0953 14.2812ZM29.9066 14.2807L34.535 11.6085C33.0608 9.06084 30.9383 6.93847 28.3921 5.46515L25.7185 10.0961C25.5273 10.4272 25.6398 10.8399 25.9579 11.0519C27.1421 11.8412 28.1607 12.8573 28.9509 14.0414C29.1631 14.3594 29.5756 14.4719 29.9066 14.2807ZM20.0005 31.4364L20.0005 36.7827L20.0027 36.7849C23.0616 36.7842 25.9245 35.9622 28.392 34.5345L25.7207 29.9077C25.5292 29.576 25.1146 29.4673 24.7717 29.6378C23.7162 30.1629 22.5635 30.5218 21.3459 30.6755C21.1719 30.6975 20.9151 30.7152 20.6723 30.7284C20.2956 30.749 20.0005 31.0591 20.0005 31.4364ZM30.7356 20.6854C30.6427 22.1455 30.2552 23.5248 29.6359 24.7699C29.4654 25.1127 29.5741 25.5273 29.9057 25.7188L34.5353 28.3917C35.9646 25.9215 36.7834 23.056 36.7832 19.9999L31.4429 19.9999C31.0606 19.9999 30.7599 20.3039 30.7356 20.6854ZM10.0944 25.7193L5.46599 28.3915C6.94016 30.9392 9.0627 33.0615 11.6088 34.5347L14.2825 29.9039C14.4736 29.5728 14.3611 29.1601 14.043 28.9481C12.8589 28.1588 11.8403 27.1427 11.05 25.9586C10.8378 25.6406 10.4254 25.5282 10.0944 25.7193Z" fill="#FF6D81"/>
<path d="M18.5887 4.69214V7.90618C18.1674 7.96018 17.7177 8.04017 17.2448 8.14515C16.5575 8.29781 15.8653 8.5263 15.1796 8.82645L13.5696 6.03778C15.1518 5.30823 16.8509 4.8527 18.5887 4.69214ZM19.9982 3.21509C16.9393 3.21581 14.0764 4.03784 11.609 5.46549L14.2801 10.0921C14.4104 10.3177 14.6492 10.45 14.8943 10.45C14.9965 10.45 15.0997 10.427 15.1967 10.3782C15.9367 10.0054 16.7231 9.70722 17.5508 9.52339C18.3454 9.3469 18.943 9.27595 19.3491 9.24953C19.7185 9.2254 20.0005 8.91347 20.0005 8.54324V3.21739C19.9996 3.21652 19.9991 3.21595 19.9982 3.21509ZM6.03803 13.5689L8.831 15.1814C8.35794 16.2707 8.05054 17.4122 7.9136 18.5882H4.69439C4.85452 16.8498 5.30948 15.1503 6.03803 13.5689ZM5.46566 11.6084C4.03636 14.0785 3.21749 16.944 3.21777 19.9999H8.55806C8.94036 19.9999 9.24101 19.6959 9.26528 19.3144C9.3582 17.8545 9.74574 16.4752 10.3651 15.2301C10.5355 14.8873 10.4268 14.4727 10.0953 14.2813L5.46566 11.6084ZM28.8756 7.45121C30.2975 8.45908 31.541 9.70277 32.5489 11.125L29.7576 12.7367C29.0504 11.7874 28.2148 10.9526 27.2628 10.2448L28.8756 7.45121ZM28.3921 5.4652L25.7184 10.0961C25.5273 10.4273 25.6398 10.8399 25.9579 11.0519C27.142 11.8413 28.1606 12.8574 28.9509 14.0414C29.0925 14.2537 29.3234 14.3743 29.5596 14.3743C29.6774 14.3743 29.7965 14.3443 29.9066 14.2808L34.5349 11.6085C33.0607 9.06082 30.9383 6.93852 28.3921 5.4652ZM24.8204 31.1718L26.4315 33.9623C24.8491 34.6917 23.15 35.1472 21.4123 35.3079L21.4122 32.0889C21.4514 32.0849 21.4885 32.0806 21.5226 32.0762C22.6603 31.9326 23.7668 31.629 24.8204 31.1718ZM25.1083 29.558C24.9951 29.558 24.8799 29.584 24.7717 29.6379C23.7161 30.1629 22.5634 30.5219 21.3459 30.6756C21.1719 30.6976 20.915 30.7152 20.6722 30.7284C20.2956 30.749 20.0004 31.0592 20.0004 31.4365L20.0005 36.7827C20.0014 36.7836 20.0019 36.7841 20.0027 36.7849C23.0616 36.7843 25.9245 35.9622 28.392 34.5345L25.7207 29.9077C25.5896 29.6807 25.3539 29.558 25.1083 29.558ZM35.3065 21.4116C35.1464 23.15 34.6915 24.8497 33.9629 26.4311L31.1699 24.8187C31.6431 23.7291 31.9505 22.5876 32.0873 21.4116H35.3065ZM36.7832 19.9999H31.4429C31.0606 19.9999 30.7599 20.3039 30.7356 20.6855C30.6427 22.1456 30.2551 23.5249 29.6359 24.77C29.4653 25.1128 29.5741 25.5274 29.9056 25.7188L34.5353 28.3917C35.9645 25.9215 36.7834 23.056 36.7832 19.9999ZM10.2433 27.2634C10.9504 28.2128 11.7863 29.0476 12.738 29.7553L11.1253 32.5487C9.7033 31.5409 8.45983 30.2973 7.45196 28.875L10.2433 27.2634ZM10.4412 25.6258C10.3236 25.6258 10.2044 25.6558 10.0944 25.7193L5.46595 28.3914C6.94013 30.9393 9.06264 33.0616 11.6087 34.5347L14.2824 29.9038C14.4736 29.5728 14.3611 29.1602 14.043 28.9481C12.8588 28.1588 11.8402 27.1427 11.05 25.9587C10.9084 25.7464 10.6776 25.6258 10.4412 25.6258Z" fill="#E14B5E"/>
<path d="M20.0674 31.4694C26.4018 31.4324 31.5068 26.2673 31.4697 19.9329C31.4327 13.5985 26.2676 8.49354 19.9333 8.53058C13.5989 8.56763 8.4939 13.7327 8.53094 20.0671C8.56798 26.4014 13.733 31.5064 20.0674 31.4694Z" fill="#72A555"/>
<path d="M19.9991 32.1759C16.773 32.1759 13.7376 30.9305 11.4421 28.6603C9.12824 26.374 7.84378 23.3225 7.8254 20.0711C7.80701 16.8197 9.05472 13.7545 11.341 11.4429C13.6273 9.12902 16.6788 7.84455 19.9302 7.82617C19.9554 7.82617 19.983 7.82617 20.0083 7.82617C23.2298 7.82617 26.2652 9.07158 28.5584 11.3395C30.8723 13.6258 32.1567 16.6773 32.1751 19.9287C32.2142 26.6405 26.7845 32.1345 20.0726 32.1759C20.0474 32.1759 20.0244 32.1759 19.9991 32.1759ZM19.9394 9.23702C17.0625 9.2531 14.3672 10.3905 12.3452 12.4332C10.3231 14.4783 9.22016 17.1874 9.23624 20.0619C9.27071 25.9764 14.0938 30.765 20.0014 30.765C20.0221 30.765 20.0428 30.765 20.0634 30.765C25.9986 30.7283 30.7987 25.8707 30.7643 19.9378C30.7482 17.061 29.6108 14.3657 27.568 12.3436C25.5391 10.34 22.8553 9.23702 20.0083 9.23702C19.9853 9.23702 19.9623 9.23702 19.9394 9.23702Z" fill="#8DB263"/>
<path d="M20.0504 28.5374C24.7654 28.5098 28.5654 24.6651 28.5378 19.95C28.5103 15.2349 24.6656 11.435 19.9505 11.4625C15.2354 11.4901 11.4354 15.3348 11.463 20.0499C11.4906 24.765 15.3353 28.5649 20.0504 28.5374Z" fill="#7E5E51"/>
<path d="M19.9987 29.2438C14.9275 29.2438 10.7869 25.1331 10.757 20.0549C10.7271 14.9584 14.8494 10.7879 19.9459 10.7581C19.9643 10.7581 19.9826 10.7581 20.001 10.7581C25.0723 10.7581 29.2129 14.8665 29.2428 19.9446C29.2726 25.0434 25.1504 29.2139 20.0539 29.2438C20.0355 29.2438 20.0171 29.2438 19.9987 29.2438ZM20.001 12.1689C19.9849 12.1689 19.9712 12.1689 19.9551 12.1689C15.6352 12.1942 12.1426 15.7282 12.1678 20.0457C12.1931 24.3495 15.7019 27.833 19.9987 27.833C20.0148 27.833 20.0286 27.833 20.0447 27.833C24.3645 27.8077 27.8572 24.2737 27.8319 19.9538C27.8181 17.8605 26.9932 15.9005 25.5065 14.4299C24.0291 12.9708 22.0759 12.1689 20.001 12.1689Z" fill="#8DB263"/>
<path d="M23.2482 19.0458C22.9755 19.0458 22.7364 19.158 22.5606 19.3312H20.8515C20.807 19.2773 20.7603 19.2305 20.7066 19.186V17.4967C20.8904 17.319 21.004 17.07 21.004 16.7842C21.004 16.2247 20.5762 15.7969 20.0167 15.7969C19.4572 15.7969 19.0294 16.2576 19.0294 16.7842C19.0294 17.0446 19.1359 17.2709 19.2958 17.4444V19.1853C19.2416 19.2301 19.1947 19.277 19.1498 19.3312H17.4541C17.2773 19.1555 17.0317 19.0488 16.753 19.0488C16.1934 19.0488 15.7656 19.5097 15.7656 20.0362C15.7656 20.5957 16.2263 21.0235 16.753 21.0235C17.0311 21.0235 17.2761 20.9171 17.4528 20.742H19.1504C19.1949 20.7957 19.2419 20.8423 19.2958 20.8869V22.7016C19.132 22.8803 19.0294 23.1141 19.0294 23.3662C19.0294 23.9258 19.4902 24.3536 20.0167 24.3536C20.5762 24.3536 21.004 23.9258 21.004 23.3662C21.004 23.0805 20.8904 22.8314 20.7066 22.6538V20.8863C20.76 20.8421 20.8066 20.7954 20.8508 20.742H22.5652C22.7456 20.9148 22.9885 21.0205 23.2482 21.0205C23.8078 21.0205 24.2356 20.5927 24.2356 20.0331C24.2356 19.4738 23.8078 19.0458 23.2482 19.0458Z" fill="#F8C63D"/>
<path d="M20.001 38.2467C9.98953 38.2467 1.81398 30.1309 1.75423 20.108C1.69449 10.0459 9.83098 1.81292 19.893 1.75317C19.9275 1.75317 19.9643 1.75317 19.9987 1.75317C30.0148 1.75317 38.1881 9.86898 38.2455 19.892C38.2754 24.7656 36.405 29.3589 32.9767 32.8262C29.5506 36.2936 24.9803 38.2192 20.1067 38.2467C20.0722 38.2467 20.0355 38.2467 20.001 38.2467ZM19.9022 3.16402C15.4054 3.19159 11.1867 4.96779 8.02721 8.16632C4.86545 11.3648 3.1398 15.602 3.16508 20.0988C3.22023 29.3474 10.7639 36.8359 20.001 36.8359C20.0332 36.8359 20.0654 36.8359 20.0975 36.8359C24.5943 36.8083 28.8131 35.0321 31.9725 31.8336C35.1343 28.6351 36.8599 24.3979 36.8347 19.9011C36.7818 10.6525 29.2381 3.16402 19.9987 3.16402C19.9665 3.16402 19.9344 3.16402 19.9022 3.16402Z" fill="#7E5E51"/>
</g>
<defs>
<clipPath id="clip0_4004_1561">
<rect width="40" height="40" fill="white"/>
</clipPath>
</defs>
</svg>
