<svg width="40" height="40" viewBox="0 0 40 40" fill="none" xmlns="http://www.w3.org/2000/svg">
<g clip-path="url(#clip0_4004_1484)">
<path d="M16.6922 28.022L29.4296 32.6571C29.9909 32.8614 30.6116 32.5718 30.8158 32.0106L37.601 13.3651C37.8053 12.8039 37.5157 12.1832 36.9545 11.9789L24.2174 7.3443C23.6561 7.14001 23.0355 7.42962 22.8312 7.99088L16.046 26.6363C15.8418 27.1971 16.1309 27.8177 16.6922 28.022Z" fill="#F7F9FA"/>
<path d="M10.5715 32.657L23.3084 28.0202C23.8697 27.8159 24.159 27.1951 23.9547 26.6338L17.1674 7.98916C16.9631 7.4279 16.3423 7.13859 15.781 7.34287L3.04483 11.9798C2.48357 12.1841 2.19425 12.8049 2.39853 13.3661L9.18582 32.0108C9.38985 32.5717 10.0103 32.8612 10.5715 32.657Z" fill="white"/>
<path d="M38.2048 12.2411C38.0026 11.8068 37.6441 11.4805 37.196 11.3151L24.4594 6.68042C24.0113 6.51957 23.5265 6.54025 23.0899 6.74246C22.6579 6.94466 22.3293 7.30312 22.1685 7.74889L20.0006 13.7062L17.8325 7.74889C17.4947 6.82058 16.4653 6.34724 15.5393 6.67812L2.80265 11.3151C1.87664 11.6528 1.3987 12.6823 1.73417 13.6083L8.52186 32.2526C8.6873 32.7006 9.01359 33.0591 9.44787 33.2613C9.68684 33.3739 9.94419 33.429 10.2015 33.429C10.406 33.429 10.6129 33.3923 10.8128 33.321L19.9982 29.9769L29.1882 33.321C29.3881 33.3923 29.5949 33.429 29.8017 33.429C30.0591 33.429 30.3164 33.3716 30.5577 33.259C30.9897 33.0568 31.3183 32.6983 31.4791 32.2526L38.2645 13.606C38.4276 13.1579 38.407 12.6731 38.2048 12.2411ZM10.3302 31.9929C10.1372 32.0641 9.92121 31.9653 9.84998 31.77L3.0623 13.1257C2.99107 12.9304 3.09217 12.7121 3.28518 12.6432L16.0219 8.00624C16.0632 7.99016 16.1069 7.98327 16.1505 7.98327C16.3045 7.98327 16.4492 8.07748 16.5044 8.23143L19.6689 16.9266L20.0005 17.8378L23.2898 26.8757C23.3242 26.9699 23.3197 27.071 23.2783 27.163C23.2346 27.2526 23.1611 27.3215 23.0669 27.356L18.9564 28.8524L17.9323 29.2252L10.3302 31.9929ZM30.151 31.7723C30.105 31.8964 30.0108 31.9562 29.9603 31.9814C29.8661 32.0251 29.765 32.0297 29.6708 31.9929L22.0638 29.2249L23.5494 28.6841C23.9975 28.5187 24.356 28.1924 24.5582 27.7581C24.7604 27.3261 24.7811 26.8413 24.6179 26.3932L20.7523 15.7715L23.4966 8.22913C23.5425 8.10505 23.6367 8.04531 23.6873 8.02003C23.7815 7.98097 23.8849 7.97408 23.9768 8.00854L36.7135 12.6432C36.9065 12.7121 37.0076 12.9281 36.9364 13.1234L30.151 31.7723Z" fill="#DBDDE0"/>
<path d="M27.5123 16.9209C27.7788 16.8583 28.0566 16.9602 28.2195 17.1802C28.8155 17.9853 30.1307 20.016 29.4961 21.5177C29.2159 22.1806 28.3578 22.6411 27.6504 22.5082C27.2824 22.4391 26.9727 22.2627 26.7402 22.0216C26.6553 21.9335 26.5048 21.9896 26.5078 22.1118C26.5165 22.4602 26.5735 22.8025 26.6749 23.1295C26.7182 23.2689 26.5817 23.3958 26.4447 23.3456C26.0141 23.1877 25.2945 22.9238 24.8639 22.766C24.7248 22.715 24.7083 22.5289 24.8332 22.4491C25.117 22.2677 25.3775 22.0473 25.6062 21.7921C25.6873 21.7016 25.6105 21.5619 25.4894 21.5726C25.1587 21.6019 24.8123 21.5335 24.4907 21.3472C23.8719 20.9887 23.5208 20.0854 23.7349 19.4031C24.2228 17.8484 26.5376 17.1497 27.5123 16.9209ZM28.0629 28.8814L28.465 27.7647C28.5179 28.0312 28.7499 28.2725 29.0142 28.3207C29.244 28.3621 29.5082 28.2587 29.6507 28.0772C29.738 27.9715 29.7886 27.8267 29.7954 27.6843C29.823 27.1098 29.4783 26.5905 28.9384 26.3952C28.6075 26.2711 28.2513 26.2918 27.9319 26.4388C27.6125 26.5882 27.3713 26.8524 27.2518 27.181L26.8037 28.4149C26.7394 28.5804 26.7624 28.7918 26.8428 28.9503C26.9232 29.1089 27.0795 29.2513 27.2495 29.2996C27.3023 29.3157 27.3575 29.3226 27.4126 29.3226C27.6907 29.3226 27.9687 29.1434 28.0629 28.8814ZM25.7146 13.5643C26.034 13.4149 26.2775 13.1484 26.397 12.8175L26.8543 11.5652C26.9094 11.3998 26.8818 11.1953 26.8014 11.0413C26.721 10.8874 26.5693 10.7472 26.4016 10.7013C26.0799 10.6024 25.6985 10.8047 25.5859 11.1195L25.17 12.1695C25.0896 11.9122 24.8483 11.6985 24.5795 11.6732C24.3887 11.6571 24.1544 11.7468 24.0211 11.8961C23.9223 12.0041 23.8579 12.1718 23.8511 12.3189C23.8281 12.8888 24.1727 13.4058 24.7127 13.6057C24.8598 13.6585 25.0114 13.6861 25.1631 13.6861C25.3515 13.6861 25.5376 13.6447 25.7146 13.5643Z" fill="#525967"/>
<path d="M13.6453 23.2273L10.6105 21.8122C10.1553 21.5999 9.95832 21.0588 10.1706 20.6035L11.5857 17.5688C11.798 17.1135 12.3392 16.9165 12.7944 17.1288L15.8292 18.544C16.2844 18.7562 16.4814 19.2974 16.2691 19.7527L14.854 22.7874C14.6417 23.2427 14.1006 23.4396 13.6453 23.2273ZM19.8114 26.7124C19.8413 26.7078 19.8689 26.7055 19.8965 26.6986C19.9217 26.6917 19.9447 26.6825 19.97 26.6733C20.2112 26.5722 20.3951 26.3194 20.3974 26.0552L20.4158 24.0194C20.4433 23.7069 20.209 23.3783 19.9033 23.3024C19.8183 23.2818 19.7241 23.2772 19.6368 23.2933C19.5725 23.3047 19.5104 23.3231 19.4507 23.353C19.237 23.461 19.0784 23.7137 19.0761 23.9527V24.0676L18.9475 24.1136L18.8395 23.9895C18.6671 23.8171 18.3684 23.7436 18.1432 23.824C18.0835 23.8447 18.0237 23.8746 17.9709 23.9137C17.9135 23.955 17.8606 24.0056 17.8192 24.0653C17.6492 24.3043 17.6607 24.6788 17.8514 24.9017L19.2416 26.524C19.3657 26.648 19.5518 26.717 19.7333 26.717C19.7609 26.717 19.7862 26.7147 19.8114 26.7124ZM6.85876 16.6641C7.09774 16.5676 7.27696 16.3034 7.27926 16.0437V15.9334L7.41024 15.8852L7.51593 16.0092C7.64001 16.1333 7.82843 16.2023 8.00996 16.2023C8.04443 16.2023 8.07889 16.2023 8.11336 16.1954C8.14553 16.1908 8.18 16.1816 8.21217 16.1724L8.20987 16.1701C8.24433 16.1609 8.27421 16.1471 8.30408 16.1333C8.36612 16.1012 8.42126 16.0621 8.46952 16.0138C8.5936 15.8875 8.67402 15.6876 8.66713 15.5083C8.66253 15.3659 8.59819 15.2096 8.50628 15.0993L7.15058 13.5092C7.11152 13.4656 7.06786 13.4265 7.01961 13.3944C6.87025 13.291 6.64277 13.2542 6.46814 13.2978C6.18551 13.3691 5.96033 13.654 5.95803 13.9435L5.94194 15.9679C5.92126 16.1494 5.99479 16.3493 6.11658 16.4826C6.23606 16.6182 6.42448 16.7147 6.60601 16.7147C6.68643 16.7147 6.78294 16.694 6.85876 16.6641Z" fill="#E14B5E"/>
</g>
<defs>
<clipPath id="clip0_4004_1484">
<rect width="40" height="40" fill="white"/>
</clipPath>
</defs>
</svg>
