<svg width="33" height="32" viewBox="0 0 33 32" fill="none" xmlns="http://www.w3.org/2000/svg">
<path d="M27.8022 18.0498H24.3242V16.7336H27.8022C28.6827 16.7336 29.3996 16.0167 29.3996 15.1362V12.092H30.7158V15.1362C30.7158 16.7428 29.4088 18.0498 27.8022 18.0498Z" fill="#525967"/>
<path d="M14.6157 19.5739C18.3428 19.5739 21.3642 16.5525 21.3642 12.8254C21.3642 9.09832 18.3428 6.0769 14.6157 6.0769C10.8886 6.0769 7.86719 9.09832 7.86719 12.8254C7.86719 16.5525 10.8886 19.5739 14.6157 19.5739Z" fill="#F8C63D"/>
<path d="M14.6152 20.1379C10.5821 20.1379 7.30273 16.8585 7.30273 12.8254C7.30273 8.79235 10.5821 5.51294 14.6152 5.51294C18.6483 5.51294 21.9277 8.79235 21.9277 12.8254C21.9277 16.8585 18.6483 20.1379 14.6152 20.1379ZM14.6152 6.64162C11.2053 6.64162 8.43141 9.41551 8.43141 12.8254C8.43141 16.2354 11.2053 19.0093 14.6152 19.0093C18.0252 19.0093 20.7991 16.2354 20.7991 12.8254C20.7991 9.41551 18.0252 6.64162 14.6152 6.64162Z" fill="#F39C13"/>
<path d="M24.8287 25.9233H4.40116C3.28969 25.9233 2.38867 25.0223 2.38867 23.9108V10.6692C2.38867 9.55776 3.28969 8.65674 4.40116 8.65674H24.8287C25.9402 8.65674 26.8412 9.55776 26.8412 10.6692V23.9108C26.8412 25.0223 25.9402 25.9233 24.8287 25.9233Z" fill="#A77DF1"/>
<path d="M24.8287 9.97441C25.2118 9.97441 25.5235 10.2861 25.5235 10.6693V23.9109C25.5235 24.294 25.2118 24.6057 24.8287 24.6057H4.40114C4.01804 24.6057 3.70634 24.294 3.70634 23.9109V10.6693C3.70634 10.2861 4.01804 9.97441 4.40114 9.97441H24.8287ZM24.8287 8.65674H4.40114C3.28969 8.65674 2.38867 9.55782 2.38867 10.6693V23.9109C2.38867 25.0223 3.28969 25.9234 4.40114 25.9234H24.8287C25.9401 25.9234 26.8412 25.0223 26.8412 23.9109V10.6693C26.8412 9.55782 25.9401 8.65674 24.8287 8.65674ZM23.1721 12.3265V22.2537H6.05744V12.3265H23.1721ZM23.5486 11.0089H5.68095C5.16113 11.0089 4.73977 11.4302 4.73977 11.9501V22.6302C4.73977 23.15 5.16113 23.5714 5.68095 23.5714H23.5486C24.0684 23.5714 24.4898 23.15 24.4898 22.6302V11.9501C24.4898 11.4302 24.0684 11.0089 23.5486 11.0089Z" fill="#8C62D6"/>
<path d="M22.5136 12.9849V21.5952H17.2487V12.9849H22.5136ZM6.71582 21.5952H11.9808V12.9849H6.71582V21.5952ZM11.9808 21.5952H17.2487V12.9849H11.9808V21.5952Z" fill="white"/>
<path d="M17.905 12.3271H16.5907H12.6385H11.3242H6.05762V22.2536H11.3242H12.6385H16.5907H17.905H23.1716V12.3271H17.905ZM11.3223 20.9374H7.37379V13.6433H11.3223V20.9374ZM16.5889 20.9374H12.6403V13.6433H16.5889V20.9374ZM21.8554 20.9374H17.9069V13.6433H21.8554V20.9374Z" fill="#525967"/>
<path d="M19.8813 18.1796C19.3921 18.1796 18.9918 17.7793 18.9918 17.2901C18.9918 16.8009 19.3921 16.4006 19.8813 16.4006C20.3705 16.4006 20.7708 16.8009 20.7708 17.2901C20.7708 17.7793 20.3705 18.1796 19.8813 18.1796ZM10.2379 17.2901C10.2379 16.8009 9.83768 16.4006 9.34846 16.4006C8.85925 16.4006 8.45898 16.8009 8.45898 17.2901C8.45898 17.7793 8.85925 18.1796 9.34846 18.1796C9.83768 18.1796 10.2379 17.7793 10.2379 17.2901ZM15.5044 17.2901C15.5044 16.8009 15.1041 16.4006 14.6149 16.4006C14.1257 16.4006 13.7254 16.8009 13.7254 17.2901C13.7254 17.7793 14.1257 18.1796 14.6149 18.1796C15.1041 18.1796 15.5044 17.7793 15.5044 17.2901Z" fill="#E24C5F"/>
<path d="M30.0196 12.6334C30.347 12.6334 30.6124 12.368 30.6124 12.0406C30.6124 11.7132 30.347 11.4478 30.0196 11.4478C29.6922 11.4478 29.4268 11.7132 29.4268 12.0406C29.4268 12.368 29.6922 12.6334 30.0196 12.6334Z" fill="#F3596E"/>
<path d="M30.0191 11.448C30.3466 11.448 30.612 11.7134 30.612 12.0408C30.612 12.3681 30.3466 12.6336 30.0191 12.6336C29.6918 12.6336 29.4263 12.3681 29.4263 12.0408C29.4263 11.7134 29.6918 11.448 30.0191 11.448ZM30.0191 10.3186C29.0695 10.3186 28.2969 11.0911 28.2969 12.0408C28.2969 12.9905 29.0695 13.763 30.0191 13.763C30.9688 13.763 31.7414 12.9905 31.7414 12.0408C31.7414 11.0911 30.9688 10.3186 30.0191 10.3186Z" fill="#E24C5F"/>
</svg>
