<svg width="41" height="40" viewBox="0 0 41 40" fill="none" xmlns="http://www.w3.org/2000/svg">
<path d="M6.54699 11.9766C5.96902 11.9766 5.50049 12.4451 5.50049 13.0231V26.9764C5.50049 27.3728 5.72444 27.7352 6.07898 27.9124L20.0323 34.8891C20.3269 35.0364 20.6737 35.0364 20.9683 34.8891L34.9217 27.9124C35.2762 27.7352 35.5002 27.3728 35.5002 26.9764V13.0231C35.5002 12.4451 35.0316 11.9766 34.4537 11.9766H6.54699Z" fill="#CFD8DC"/>
<path d="M20.9683 5.11048C20.6737 4.96317 20.3269 4.96317 20.0323 5.11048L6.07898 12.0872C5.72444 12.2644 5.50049 12.6268 5.50049 13.0232C5.50049 13.4196 5.72444 13.7819 6.07898 13.9592L20.0323 20.9359C20.3269 21.0832 20.6737 21.0832 20.9683 20.9359L34.9217 13.9592C35.2762 13.7819 35.5002 13.4196 35.5002 13.0232C35.5002 12.6268 35.2762 12.2644 34.9217 12.0872L20.9683 5.11048Z" fill="#ECEFF1"/>
<path fill-rule="evenodd" clip-rule="evenodd" d="M28.8722 20.3486C29.4502 20.3486 29.9187 20.8172 29.9187 21.3951V24.1858C29.9187 24.7638 29.4502 25.2323 28.8722 25.2323C28.2942 25.2323 27.8257 24.7638 27.8257 24.1858V21.3951C27.8257 20.8172 28.2942 20.3486 28.8722 20.3486Z" fill="#EE4D4D"/>
<path fill-rule="evenodd" clip-rule="evenodd" d="M10.0353 17.5576C10.6132 17.5576 11.0818 18.0262 11.0818 18.6041V21.3948C11.0818 21.9728 10.6132 22.4413 10.0353 22.4413C9.4573 22.4413 8.98877 21.9728 8.98877 21.3948V18.6041C8.98877 18.0262 9.4573 17.5576 10.0353 17.5576Z" fill="#EE4D4D"/>
<path fill-rule="evenodd" clip-rule="evenodd" d="M13.5236 21.0459C14.1015 21.0459 14.5701 21.5144 14.5701 22.0924V24.8831C14.5701 25.461 14.1015 25.9296 13.5236 25.9296C12.9456 25.9296 12.4771 25.461 12.4771 24.8831V22.0924C12.4771 21.5144 12.9456 21.0459 13.5236 21.0459Z" fill="#EE4D4D"/>
<path fill-rule="evenodd" clip-rule="evenodd" d="M17.0118 24.5342C17.5898 24.5342 18.0583 25.0027 18.0583 25.5807V28.3713C18.0583 28.9493 17.5898 29.4178 17.0118 29.4178C16.4339 29.4178 15.9653 28.9493 15.9653 28.3713V25.5807C15.9653 25.0027 16.4339 24.5342 17.0118 24.5342Z" fill="#EE4D4D"/>
<path fill-rule="evenodd" clip-rule="evenodd" d="M18.0586 10.9303C18.0586 10.3523 18.5271 9.88379 19.1051 9.88379H21.8958C22.4737 9.88379 22.9423 10.3523 22.9423 10.9303C22.9423 11.5083 22.4737 11.9768 21.8958 11.9768H19.1051C18.5271 11.9768 18.0586 11.5083 18.0586 10.9303Z" fill="#EE4D4D"/>
<path fill-rule="evenodd" clip-rule="evenodd" d="M18.0586 15.1158C18.0586 14.5379 18.5271 14.0693 19.1051 14.0693H21.8958C22.4737 14.0693 22.9423 14.5379 22.9423 15.1158C22.9423 15.6938 22.4737 16.1623 21.8958 16.1623H19.1051C18.5271 16.1623 18.0586 15.6938 18.0586 15.1158Z" fill="#EE4D4D"/>
</svg>
