<svg width="40" height="40" viewBox="0 0 40 40" fill="none" xmlns="http://www.w3.org/2000/svg">
<g clip-path="url(#clip0_4004_1539)">
<path d="M36.6772 18.3624C36.6772 18.6179 36.6605 18.8694 36.639 19.1193C36.4431 16.8077 34.5122 14.9706 32.1524 14.9706H31.77C29.2813 14.9706 27.2453 17.0067 27.2453 19.4954V23.1434L26.1921 24.0151C26.0015 24.173 25.7177 24.1389 25.5696 23.9409L24.8019 22.9131C24.5704 22.6033 24.2065 22.4209 23.8197 22.4209H23.8151C23.4268 22.4209 23.0684 22.5978 22.8317 22.9126L22.2546 23.6821C22.0815 23.913 21.7349 23.9128 21.562 23.6815L20.9886 22.9145C20.7563 22.6039 20.3911 22.4209 20.0031 22.4209H19.9997V14.9706C21.3206 11.861 24.4029 9.67993 27.9947 9.67993C32.7899 9.67993 36.6772 13.5672 36.6772 18.3624ZM19.9997 22.4209C19.609 22.4209 19.2495 22.6025 19.0174 22.915L18.4444 23.6813C18.2715 23.9126 17.9248 23.9127 17.7517 23.6816L17.1741 22.9105C16.9433 22.6023 16.5807 22.4209 16.1957 22.4209H16.1911C15.8035 22.4209 15.4385 22.6036 15.2061 22.9139L14.4365 23.9418C14.2884 24.1396 14.005 24.1734 13.8146 24.016L12.6686 23.0689C12.2803 22.7426 11.7357 22.7243 11.3198 23.0115C10.9062 23.2987 10.7361 23.8134 10.8809 24.2385L12.0344 28.7629C12.2228 29.4913 12.8777 29.9991 13.6291 29.9991H19.9997L19.9997 22.4209C20.0002 22.4209 19.9992 22.4209 19.9997 22.4209Z" fill="#6C9AF5"/>
<path d="M29.1093 24.2914L27.9719 28.7606C27.7858 29.489 27.1286 29.9991 26.3749 29.9991H19.9997V22.4209H20.0032C20.3911 22.4209 20.7563 22.6039 20.9886 22.9146L21.5621 23.6816C21.7349 23.9128 22.0815 23.9131 22.2547 23.6821L22.8317 22.9127C23.0684 22.5979 23.4269 22.4209 23.8152 22.4209H23.8198C24.2064 22.4209 24.5704 22.6034 24.8019 22.9131L25.5697 23.9409C25.7178 24.139 26.0016 24.1729 26.1921 24.0152L27.3354 23.0689C27.7306 22.7426 28.2729 22.7266 28.6865 23.0115C29.1001 23.2987 29.2702 23.8134 29.1093 24.2914ZM14.4366 23.9418L15.2062 22.9139C15.4385 22.6036 15.8035 22.4209 16.1911 22.4209H16.1957C16.5807 22.4209 16.9433 22.6023 17.1741 22.9105L17.7517 23.6815C17.9249 23.9128 18.2716 23.9126 18.4445 23.6813L19.0173 22.9149C19.2494 22.6024 19.6091 22.4209 19.9997 22.4209C19.9993 22.4209 20.0003 22.4209 19.9997 22.4209L19.9997 14.9706C18.6787 11.861 15.5964 9.67993 12.0046 9.67993C7.20941 9.67993 3.32227 13.5672 3.32227 18.3624C3.32227 18.6179 3.33878 18.8694 3.36047 19.1193C3.55621 16.8077 5.48707 14.9706 7.84691 14.9706H8.22935C10.718 14.9706 12.7541 17.0067 12.7541 19.4954V23.1397L13.8146 24.016C14.005 24.1734 14.2883 24.1395 14.4366 23.9418Z" fill="#FF6D81"/>
<path d="M23.8163 23.9528L24.4389 24.7861C24.7854 25.2496 25.3378 25.5264 25.9167 25.5264C26.3448 25.5264 26.7624 25.3759 27.0923 25.1028L27.5404 24.7318L26.6041 28.411C26.5776 28.5148 26.4834 28.5873 26.375 28.5873H21.4115V25.198C21.5719 25.2432 21.7391 25.2669 21.9085 25.2669C22.486 25.2669 23.0376 24.9911 23.3841 24.5292L23.8163 23.9528ZM23.8198 22.4209H23.8152C23.4269 22.4209 23.0684 22.5978 22.8318 22.9126L22.2547 23.6821C22.1681 23.7975 22.0383 23.8552 21.9085 23.8552C21.7785 23.8552 21.6486 23.7973 21.5621 23.6816L20.9886 22.9146C20.7563 22.6039 20.3911 22.4209 20.0032 22.4209H19.9997V29.999H26.375C27.1286 29.999 27.7858 29.4889 27.9719 28.7605L29.1093 24.2913C29.2702 23.8134 29.1001 23.2987 28.6865 23.0114C28.4922 22.8776 28.2694 22.8101 28.0468 22.8101C27.7957 22.8101 27.545 22.8959 27.3354 23.0689L26.1921 24.0152C26.1113 24.0821 26.0136 24.1146 25.9167 24.1146C25.7851 24.1146 25.655 24.0549 25.5697 23.9409L24.8018 22.9131C24.5705 22.6034 24.2064 22.4209 23.8198 22.4209ZM14.166 24.0979V19.4954C14.166 16.222 11.5028 13.5589 8.22935 13.5589H7.84691C7.34743 13.5589 6.85986 13.6232 6.39312 13.7442C7.72771 12.1255 9.7479 11.0918 12.0048 11.0918C14.8367 11.0918 17.3911 12.7232 18.5879 15.2712V23.4894L19.0173 22.9149C19.2494 22.6024 19.6091 22.4209 19.9997 22.4209C19.9993 22.4209 20.0003 22.4209 19.9997 22.4209L19.9997 14.9706C18.6787 11.861 15.5964 9.67993 12.0048 9.67993C7.20956 9.67993 3.32227 13.5672 3.32227 18.3624C3.32227 18.6179 3.33878 18.8694 3.36047 19.1193C3.55621 16.8077 5.48708 14.9706 7.84691 14.9706H8.22935C10.718 14.9706 12.7541 17.0067 12.7541 19.4954V23.1397L13.8146 24.016C13.9177 24.1013 14.0446 24.1206 14.166 24.0979Z" fill="#E14B5E"/>
<path d="M36.6772 18.3624C36.6772 18.6179 36.6607 18.8694 36.639 19.1193C36.4432 16.8077 34.5122 14.9706 32.1525 14.9706H31.7699C29.2814 14.9706 27.2453 17.0067 27.2453 19.4954V23.1434L26.192 24.0152C26.0866 24.1025 25.9571 24.1187 25.8334 24.0933V19.4954C25.8334 16.222 28.4966 13.5589 31.7699 13.5589H32.1525C32.652 13.5589 33.1396 13.6232 33.6063 13.7442C32.2717 12.1255 30.2515 11.0918 27.9947 11.0918C25.1628 11.0918 22.6083 12.7232 21.4115 15.2713V23.4802L20.9885 22.9145C20.7563 22.6039 20.3911 22.4209 20.0031 22.4209H19.9996V14.9706C21.3207 11.861 24.4031 9.67993 27.9947 9.67993C32.7899 9.67993 36.6772 13.5672 36.6772 18.3624ZM16.1914 23.9535L15.5665 24.788C15.2201 25.2506 14.6681 25.527 14.0898 25.527C13.6623 25.527 13.2453 25.3769 12.9155 25.1044L12.4588 24.727L13.4024 28.4141C13.4283 28.5141 13.522 28.5873 13.6291 28.5873H18.5879V25.1997C18.4297 25.2436 18.2649 25.2667 18.0979 25.2667C17.52 25.2667 16.9682 24.9905 16.6217 24.528L16.1914 23.9535ZM19.9996 22.4209L19.9997 29.999H13.6291C12.8777 29.999 12.2228 29.4912 12.0344 28.7628L10.8809 24.2385C10.7361 23.8134 10.9062 23.2987 11.3198 23.0114C11.5149 22.8767 11.7383 22.8092 11.9606 22.8092C12.2122 22.8092 12.4624 22.8957 12.6686 23.0689L13.8145 24.016C13.8954 24.0828 13.993 24.1152 14.0898 24.1152C14.2212 24.1152 14.3512 24.0556 14.4365 23.9418L15.2061 22.9139C15.4384 22.6036 15.8034 22.4209 16.1911 22.4209H16.1957C16.5807 22.4209 16.9433 22.6024 17.1741 22.9105L17.7517 23.6816C17.8382 23.7971 17.968 23.8549 18.0979 23.8549C18.2279 23.8549 18.3579 23.797 18.4445 23.6813L19.0174 22.9149C19.2495 22.6024 19.609 22.4209 19.9996 22.4209C20.0002 22.4209 19.9992 22.4209 19.9996 22.4209Z" fill="#4C7AD5"/>
<path d="M35.9684 18.5207C37.118 18.5207 38.05 17.5887 38.05 16.4391C38.05 15.2894 37.118 14.3574 35.9684 14.3574C34.8187 14.3574 33.8867 15.2894 33.8867 16.4391C33.8867 17.5887 34.8187 18.5207 35.9684 18.5207Z" fill="#FF6D81"/>
<path d="M4.03185 18.5207C5.18151 18.5207 6.1135 17.5887 6.1135 16.4391C6.1135 15.2894 5.18151 14.3574 4.03185 14.3574C2.88218 14.3574 1.9502 15.2894 1.9502 16.4391C1.9502 17.5887 2.88218 18.5207 4.03185 18.5207Z" fill="#6C9AF5"/>
<path d="M35.9679 19.2265C34.4307 19.2265 33.1807 17.9765 33.1807 16.4393C33.1807 14.9021 34.4307 13.6521 35.9679 13.6521C37.5051 13.6521 38.7551 14.9021 38.7551 16.4393C38.7551 17.9765 37.5051 19.2265 35.9679 19.2265ZM35.9679 15.0629C35.2096 15.0629 34.5915 15.6811 34.5915 16.4393C34.5915 17.1976 35.2096 17.8157 35.9679 17.8157C36.7262 17.8157 37.3443 17.1976 37.3443 16.4393C37.3443 15.6811 36.7262 15.0629 35.9679 15.0629Z" fill="#E14B5E"/>
<path d="M4.03136 19.2265C2.49414 19.2265 1.24414 17.9765 1.24414 16.4393C1.24414 14.9021 2.49414 13.6521 4.03136 13.6521C5.56859 13.6521 6.81859 14.9021 6.81859 16.4393C6.81859 17.9765 5.56859 19.2265 4.03136 19.2265ZM4.03136 15.0629C3.27309 15.0629 2.65499 15.6811 2.65499 16.4393C2.65499 17.1976 3.27309 17.8157 4.03136 17.8157C4.78964 17.8157 5.40774 17.1976 5.40774 16.4393C5.40774 15.6811 4.78964 15.0629 4.03136 15.0629Z" fill="#4C7AD5"/>
</g>
<defs>
<clipPath id="clip0_4004_1539">
<rect width="40" height="40" fill="white"/>
</clipPath>
</defs>
</svg>
