<svg width="21" height="20" viewBox="0 0 21 20" fill="none" xmlns="http://www.w3.org/2000/svg">
<path fill-rule="evenodd" clip-rule="evenodd" d="M10.4993 0.833328C5.5518 0.833328 1.54102 4.84411 1.54102 9.79166C1.54102 14.7392 5.5518 18.75 10.4993 18.75C15.4469 18.75 19.4577 14.7392 19.4577 9.79166C19.4577 4.84411 15.4469 0.833328 10.4993 0.833328Z" fill="#57E06C"/>
<path fill-rule="evenodd" clip-rule="evenodd" d="M15.9413 6.22471C16.1854 6.46879 16.1854 6.86452 15.9413 7.1086L9.27462 13.7753C9.03055 14.0193 8.63482 14.0193 8.39074 13.7753L5.47407 10.8586C5.23 10.6145 5.23 10.2188 5.47407 9.97471C5.71815 9.73064 6.11388 9.73064 6.35796 9.97471L8.83268 12.4494L15.0574 6.22471C15.3015 5.98064 15.6972 5.98064 15.9413 6.22471Z" fill="#000004"/>
</svg>
