<svg width="25" height="24" viewBox="0 0 25 24" fill="none" xmlns="http://www.w3.org/2000/svg">
<path d="M12.5 1.25C6.56294 1.25 1.75 6.06294 1.75 12C1.75 17.9371 6.56294 22.75 12.5 22.75C18.4371 22.75 23.25 17.9371 23.25 12C23.25 6.06294 18.4371 1.25 12.5 1.25Z" fill="#57E06C"/>
<path fill-rule="evenodd" clip-rule="evenodd" d="M17.5068 8.44714C17.8121 8.72703 17.8328 9.20146 17.5529 9.5068L12.0529 15.5068C11.7796 15.805 11.319 15.8327 11.0119 15.5694L7.51192 12.5694C7.19743 12.2999 7.161 11.8264 7.43057 11.5119C7.70014 11.1974 8.17361 11.161 8.48811 11.4306L11.4373 13.9585L16.4471 8.49321C16.727 8.18787 17.2015 8.16724 17.5068 8.44714Z" fill="#ECEFF1"/>
</svg>
