<svg width="30" height="31" viewBox="0 0 30 31" fill="none" xmlns="http://www.w3.org/2000/svg">
<path fill-rule="evenodd" clip-rule="evenodd" d="M13.75 23.625V20.5H16.25V23.625H13.75Z" fill="#57E06C"/>
<path fill-rule="evenodd" clip-rule="evenodd" d="M15 18C14.6548 18 14.375 18.2798 14.375 18.625C14.375 18.9702 14.6548 19.25 15 19.25C15.3452 19.25 15.625 18.9702 15.625 18.625C15.625 18.2798 15.3452 18 15 18ZM11.875 18.625C11.875 16.8991 13.2741 15.5 15 15.5C16.7259 15.5 18.125 16.8991 18.125 18.625C18.125 20.3509 16.7259 21.75 15 21.75C13.2741 21.75 11.875 20.3509 11.875 18.625Z" fill="#57E06C"/>
<path fill-rule="evenodd" clip-rule="evenodd" d="M3.75 16.125C3.75 14.0539 5.42893 12.375 7.5 12.375H22.5C24.5711 12.375 26.25 14.0539 26.25 16.125V24.25C26.25 26.3211 24.5711 28 22.5 28H7.5C5.42893 28 3.75 26.3211 3.75 24.25V16.125ZM7.5 14.875C6.80964 14.875 6.25 15.4346 6.25 16.125V24.25C6.25 24.9404 6.80964 25.5 7.5 25.5H22.5C23.1904 25.5 23.75 24.9404 23.75 24.25V16.125C23.75 15.4346 23.1904 14.875 22.5 14.875H7.5Z" fill="#57E06C"/>
<path fill-rule="evenodd" clip-rule="evenodd" d="M7.5 8C7.5 4.54822 10.2982 1.75 13.75 1.75H16.25C19.7018 1.75 22.5 4.54822 22.5 8V13H20V8C20 5.92893 18.3211 4.25 16.25 4.25H13.75C11.6789 4.25 10 5.92893 10 8V13.625H7.5V8Z" fill="#57E06C"/>
</svg>
