<svg width="30" height="31" viewBox="0 0 30 31" fill="none" xmlns="http://www.w3.org/2000/svg">
<path fill-rule="evenodd" clip-rule="evenodd" d="M26.25 6.75H12.5V4.25H27.5C28.1904 4.25 28.75 4.80964 28.75 5.5V25.5C28.75 26.1904 28.1904 26.75 27.5 26.75H12.5V24.25H26.25V6.75Z" fill="#57E06C"/>
<path fill-rule="evenodd" clip-rule="evenodd" d="M21.25 6.75H7.5V4.25H22.5C23.1904 4.25 23.75 4.80964 23.75 5.5V25.5C23.75 26.1904 23.1904 26.75 22.5 26.75H7.5V24.25H21.25V6.75Z" fill="#57E06C"/>
<path fill-rule="evenodd" clip-rule="evenodd" d="M1.25 5.5C1.25 4.80964 1.80964 4.25 2.5 4.25H17.5C18.1904 4.25 18.75 4.80964 18.75 5.5V25.5C18.75 26.1904 18.1904 26.75 17.5 26.75H2.5C1.80964 26.75 1.25 26.1904 1.25 25.5V5.5ZM3.75 6.75V24.25H16.25V6.75H3.75Z" fill="#57E06C"/>
<path fill-rule="evenodd" clip-rule="evenodd" d="M10.0758 12.0443C8.9181 11.5021 7.49646 11.7091 6.54029 12.6653C5.3199 13.8857 5.3199 15.8643 6.54029 17.0847L9.19194 19.7364C9.42636 19.9708 9.7443 20.1025 10.0758 20.1025C10.4073 20.1025 10.7253 19.9708 10.9597 19.7364L13.6114 17.0847C14.8317 15.8643 14.8317 13.8857 13.6114 12.6653C12.6552 11.7091 11.2335 11.5021 10.0758 12.0443ZM9.19194 14.4331C8.94786 14.189 8.55214 14.189 8.30806 14.4331C8.06398 14.6771 8.06398 15.0729 8.30806 15.3169L10.0758 17.0847L11.8436 15.3169C12.0877 15.0729 12.0877 14.6771 11.8436 14.4331C11.5995 14.189 11.2038 14.189 10.9597 14.4331C10.4716 14.9212 9.6801 14.9212 9.19194 14.4331Z" fill="#57E06C"/>
</svg>
