<svg width="30" height="31" viewBox="0 0 30 31" fill="none" xmlns="http://www.w3.org/2000/svg">
<path fill-rule="evenodd" clip-rule="evenodd" d="M5 5.50623C5 5.16024 5.28108 4.88009 5.62706 4.88123L24.3771 4.94306C24.7214 4.9442 25 5.22369 25 5.56806V19.9492C25 20.2944 24.7202 20.5742 24.375 20.5742H19.375C19.0435 20.5742 18.7255 20.7059 18.4911 20.9404L15 24.4315L11.5089 20.9404C11.2745 20.7059 10.9565 20.5742 10.625 20.5742H5.625C5.27982 20.5742 5 20.2944 5 19.9492V5.50623ZM5.6353 2.38124C3.90539 2.37554 2.5 3.77631 2.5 5.50623V19.9492C2.5 21.6751 3.89911 23.0742 5.625 23.0742H10.1072L14.1161 27.0831C14.6043 27.5713 15.3957 27.5713 15.8839 27.0831L19.8928 23.0742H24.375C26.1009 23.0742 27.5 21.6751 27.5 19.9492V5.56806C27.5 3.84619 26.1072 2.44875 24.3853 2.44308L5.6353 2.38124Z" fill="#57E06C"/>
<path fill-rule="evenodd" clip-rule="evenodd" d="M15 8C14.3096 8 13.75 8.55964 13.75 9.25C13.75 9.94036 14.3096 10.5 15 10.5C15.6904 10.5 16.25 9.94036 16.25 9.25C16.25 8.55964 15.6904 8 15 8ZM11.25 9.25C11.25 7.17893 12.9289 5.5 15 5.5C17.0711 5.5 18.75 7.17893 18.75 9.25C18.75 11.3211 17.0711 13 15 13C12.9289 13 11.25 11.3211 11.25 9.25Z" fill="#57E06C"/>
<path fill-rule="evenodd" clip-rule="evenodd" d="M11.4634 18H18.5366C18.0218 16.5435 16.6328 15.5 15 15.5C13.3672 15.5 11.9782 16.5435 11.4634 18ZM8.75 19.25C8.75 15.7982 11.5482 13 15 13C18.4518 13 21.25 15.7982 21.25 19.25C21.25 19.9404 20.6904 20.5 20 20.5H10C9.30964 20.5 8.75 19.9404 8.75 19.25Z" fill="#57E06C"/>
</svg>
