<svg width="30" height="31" viewBox="0 0 30 31" fill="none" xmlns="http://www.w3.org/2000/svg">
<path fill-rule="evenodd" clip-rule="evenodd" d="M5 3C5 2.30964 5.55964 1.75 6.25 1.75H23.75C24.4404 1.75 25 2.30964 25 3V28C25 28.6904 24.4404 29.25 23.75 29.25H6.25C5.55964 29.25 5 28.6904 5 28V3ZM7.5 4.25V26.75H22.5V4.25H7.5Z" fill="#57E06C"/>
<path fill-rule="evenodd" clip-rule="evenodd" d="M13.75 20.5V14.25H16.25V20.5H13.75Z" fill="#57E06C"/>
<path fill-rule="evenodd" clip-rule="evenodd" d="M15 18.1874C16.4335 18.9293 18.2583 18.7279 19.4793 17.5831C21.0069 16.1509 21.0069 13.7934 19.4793 12.3612L15.855 8.96311C15.3741 8.5123 14.6259 8.5123 14.145 8.96311L10.5207 12.3612C8.99311 13.7934 8.99311 16.1509 10.5207 17.5831C11.7417 18.7279 13.5665 18.9293 15 18.1874ZM15.855 15.7593C16.375 16.2469 17.2494 16.2469 17.7694 15.7593C18.2435 15.3148 18.2435 14.6295 17.7694 14.185L15 11.5885L12.2306 14.185C11.7565 14.6295 11.7565 15.3148 12.2306 15.7593C12.7506 16.2469 13.625 16.2469 14.145 15.7593C14.6259 15.3085 15.3741 15.3085 15.855 15.7593Z" fill="#57E06C"/>
</svg>
