<svg width="30" height="31" viewBox="0 0 30 31" fill="none" xmlns="http://www.w3.org/2000/svg">
<path fill-rule="evenodd" clip-rule="evenodd" d="M15 4.25C8.7868 4.25 3.75 9.2868 3.75 15.5C3.75 21.7132 8.7868 26.75 15 26.75C21.2132 26.75 26.25 21.7132 26.25 15.5C26.25 9.2868 21.2132 4.25 15 4.25ZM1.25 15.5C1.25 7.90608 7.40608 1.75 15 1.75C22.5939 1.75 28.75 7.90608 28.75 15.5C28.75 23.0939 22.5939 29.25 15 29.25C7.40608 29.25 1.25 23.0939 1.25 15.5Z" fill="#57E06C"/>
<path fill-rule="evenodd" clip-rule="evenodd" d="M5.27646 25.2227C4.78831 24.7345 4.78831 23.9431 5.27646 23.4549L22.9541 5.77725C23.4423 5.2891 24.2337 5.2891 24.7219 5.77725C25.2101 6.26541 25.2101 7.05687 24.7219 7.54502L7.04423 25.2227C6.55607 25.7108 5.76462 25.7108 5.27646 25.2227Z" fill="#57E06C"/>
<path fill-rule="evenodd" clip-rule="evenodd" d="M24.7235 25.2227C25.2117 24.7345 25.2117 23.9431 24.7235 23.4549L7.04587 5.77725C6.55771 5.2891 5.76626 5.2891 5.2781 5.77725C4.78995 6.26541 4.78995 7.05687 5.2781 7.54502L22.9558 25.2227C23.4439 25.7108 24.2354 25.7108 24.7235 25.2227Z" fill="#57E06C"/>
<path fill-rule="evenodd" clip-rule="evenodd" d="M1.25 15.5C1.25 14.8096 1.80964 14.25 2.5 14.25H27.5C28.1904 14.25 28.75 14.8096 28.75 15.5C28.75 16.1904 28.1904 16.75 27.5 16.75H2.5C1.80964 16.75 1.25 16.1904 1.25 15.5Z" fill="#57E06C"/>
<path fill-rule="evenodd" clip-rule="evenodd" d="M15 14.25C15.6904 14.25 16.25 14.8096 16.25 15.5V28C16.25 28.6904 15.6904 29.25 15 29.25C14.3096 29.25 13.75 28.6904 13.75 28V15.5C13.75 14.8096 14.3096 14.25 15 14.25Z" fill="#57E06C"/>
<path fill-rule="evenodd" clip-rule="evenodd" d="M15 4.25C14.6548 4.25 14.375 4.52982 14.375 4.875C14.375 4.87488 14.375 4.875 14.375 4.875C14.3761 4.88182 14.4083 5.08656 14.5852 5.54816C14.6987 5.84426 14.8431 6.17542 15 6.51229C15.1569 6.17542 15.3013 5.84426 15.4148 5.54816C15.5917 5.08656 15.6239 4.88199 15.625 4.87518C15.625 4.87517 15.625 4.87506 15.625 4.87518C15.625 4.53 15.3452 4.25 15 4.25ZM15 9.25C13.91 9.86197 13.91 9.86189 13.9099 9.86179L13.9034 9.85004L13.8863 9.81944C13.8717 9.79304 13.8505 9.75487 13.8238 9.70629C13.7705 9.6092 13.6949 9.4703 13.6043 9.30073C13.4238 8.96249 13.1816 8.49795 12.9383 7.99731C12.6967 7.50031 12.4449 6.94944 12.2507 6.44276C12.0792 5.99519 11.875 5.39298 11.875 4.875C11.875 3.14911 13.2741 1.75 15 1.75C16.7259 1.75 18.125 3.14911 18.125 4.875C18.125 5.39298 17.9208 5.99519 17.7493 6.44276C17.5551 6.94944 17.3033 7.50031 17.0617 7.99731C16.8184 8.49795 16.5762 8.96249 16.3957 9.30073C16.3051 9.4703 16.2295 9.6092 16.1762 9.70629C16.1495 9.75487 16.1283 9.79304 16.1137 9.81944L16.0966 9.85004L16.0906 9.86079C16.0906 9.86089 16.09 9.86197 15 9.25ZM15 9.25L16.09 9.86197C15.8687 10.256 15.4519 10.5 15 10.5C14.5481 10.5 14.1312 10.2559 13.9099 9.86179L15 9.25Z" fill="#57E06C"/>
</svg>
