<svg width="30" height="31" viewBox="0 0 30 31" fill="none" xmlns="http://www.w3.org/2000/svg">
<path fill-rule="evenodd" clip-rule="evenodd" d="M15 4.25C8.7868 4.25 3.75 9.2868 3.75 15.5C3.75 21.7132 8.7868 26.75 15 26.75C21.2132 26.75 26.25 21.7132 26.25 15.5C26.25 9.2868 21.2132 4.25 15 4.25ZM1.25 15.5C1.25 7.90608 7.40608 1.75 15 1.75C22.5939 1.75 28.75 7.90608 28.75 15.5C28.75 23.0939 22.5939 29.25 15 29.25C7.40608 29.25 1.25 23.0939 1.25 15.5Z" fill="#57E06C"/>
<path fill-rule="evenodd" clip-rule="evenodd" d="M15.0001 6.75C15.419 6.75 15.8101 6.95985 16.0417 7.30892L18.3852 10.8409L22.4684 11.9782C22.872 12.0906 23.1924 12.3977 23.3219 12.7961C23.4513 13.1945 23.3726 13.6313 23.1122 13.9594L20.4772 17.2796L20.6574 21.5145C20.6752 21.933 20.4822 22.3327 20.1432 22.5789C19.8043 22.8251 19.3646 22.8852 18.9721 22.739L15.0001 21.259L11.0282 22.739C10.6356 22.8852 10.1959 22.8251 9.857 22.5789C9.51809 22.3327 9.32506 21.933 9.34287 21.5145L9.52303 17.2796L6.88807 13.9594C6.62766 13.6313 6.54893 13.1945 6.67838 12.7961C6.80783 12.3977 7.12825 12.0906 7.53181 11.9782L11.6151 10.8409L13.9585 7.30892C14.1901 6.95985 14.5812 6.75 15.0001 6.75ZM15.0001 10.2609L13.4408 12.6112C13.2747 12.8615 13.024 13.0437 12.7346 13.1243L10.0175 13.881L11.7708 16.0903C11.9576 16.3257 12.0533 16.6204 12.0406 16.9205L11.9207 19.7385L14.5637 18.7537C14.8452 18.6488 15.1551 18.6488 15.4366 18.7537L18.0796 19.7385L17.9597 16.9205C17.9469 16.6204 18.0427 16.3257 18.2294 16.0903L19.9828 13.881L17.2657 13.1243C16.9763 13.0437 16.7256 12.8615 16.5595 12.6112L15.0001 10.2609Z" fill="#57E06C"/>
</svg>
