<svg width="25" height="25" viewBox="0 0 25 25" fill="none" xmlns="http://www.w3.org/2000/svg">
<path d="M20.7126 18.0704L21.6218 12.3114C22.0179 9.80279 22.2159 8.5485 21.9788 8.05612C21.5941 7.25728 20.6728 6.87237 19.8341 7.16014C19.3172 7.33751 18.5641 8.35991 17.0579 10.4047L17.0579 10.4047C16.948 10.5538 16.8931 10.6284 16.8363 10.6554C16.7445 10.6989 16.6356 10.6826 16.5606 10.6141C16.5141 10.5717 16.4834 10.4843 16.422 10.3096L15.4723 7.60668C14.3839 4.50895 13.8397 2.96009 12.9276 2.73051C12.6472 2.65994 12.3536 2.65994 12.0732 2.73052C11.1611 2.9601 10.6169 4.50897 9.52853 7.6067L8.57802 10.312C8.51665 10.4866 8.48597 10.5739 8.43957 10.6163C8.36452 10.6849 8.25543 10.7012 8.16362 10.6576C8.10686 10.6306 8.05199 10.556 7.94225 10.4069C6.43713 8.36202 5.68457 7.33956 5.16825 7.1619C4.32901 6.87312 3.40648 7.25832 3.02178 8.05815C2.78511 8.55023 2.98309 9.80425 3.37906 12.3123L4.28813 18.0704C4.56667 19.8346 4.70594 20.7168 5.23431 21.3164C5.406 21.5113 5.60442 21.6808 5.82367 21.82C6.49841 22.2484 7.39147 22.2484 9.17757 22.2484H15.8232C17.6093 22.2484 18.5024 22.2484 19.1771 21.82C19.3964 21.6808 19.5948 21.5113 19.7665 21.3164C20.2948 20.7168 20.4341 19.8346 20.7126 18.0704Z" fill="#FFC44D"/>
<path d="M9.75 16C9.75 14.4812 10.9812 13.25 12.5 13.25C14.0188 13.25 15.25 14.4812 15.25 16C15.25 17.5188 14.0188 18.75 12.5 18.75C10.9812 18.75 9.75 17.5188 9.75 16Z" fill="#FF8F0D"/>
</svg>
