<svg width="32" height="32" viewBox="0 0 32 32" fill="none" xmlns="http://www.w3.org/2000/svg">
<path d="M9.33317 1.6665C9.03639 1.6665 8.75495 1.79833 8.56495 2.02632L1.89828 10.0263C1.60711 10.3757 1.58841 10.8776 1.85277 11.2477L15.1861 29.9144C15.3738 30.1772 15.6769 30.3332 15.9998 30.3332C16.3228 30.3332 16.6259 30.1772 16.8136 29.9144L30.1469 11.2477C30.4113 10.8776 30.3926 10.3757 30.1014 10.0263L23.4347 2.02632C23.2447 1.79833 22.9633 1.6665 22.6665 1.6665H9.33317Z" fill="#6C9AF5"/>
<path fill-rule="evenodd" clip-rule="evenodd" d="M29.8015 9.6665H2.19813L1.89828 10.0263C1.60711 10.3757 1.58841 10.8776 1.85277 11.2477L2.15189 11.6665H29.8478L30.1469 11.2477C30.4113 10.8776 30.3926 10.3757 30.1014 10.0263L29.8015 9.6665Z" fill="#1B1B29"/>
<path fill-rule="evenodd" clip-rule="evenodd" d="M23.7597 2.41641L23.6365 2.90904C23.6303 2.93387 23.6232 2.95845 23.6151 2.98273L20.9484 10.9827C20.8205 11.3664 20.474 11.6353 20.0706 11.664C19.6672 11.6927 19.2862 11.4755 19.1053 11.1137L15.9997 4.90257L12.8941 11.1137C12.7133 11.4755 12.3323 11.6927 11.9288 11.664C11.5254 11.6353 11.1789 11.3664 11.051 10.9827L8.38436 2.98273C8.37627 2.95845 8.36911 2.93387 8.3629 2.90904L8.23975 2.41641L8.56483 2.02632C8.75482 1.79833 9.03627 1.6665 9.33305 1.6665H10.1138L10.2939 2.38671L12.185 8.05995L15.1053 2.21929C15.2747 1.88051 15.6209 1.6665 15.9997 1.6665C16.3785 1.6665 16.7247 1.88051 16.8941 2.21929L19.8145 8.05995L21.7056 2.38671L21.8856 1.6665H22.6664C22.9632 1.6665 23.2446 1.79833 23.4346 2.02632L23.7597 2.41641Z" fill="#1B1B29"/>
<path fill-rule="evenodd" clip-rule="evenodd" d="M11.7902 9.68891C12.3302 9.57319 12.8618 9.91716 12.9775 10.4572L15.9997 24.5608L19.0219 10.4572C19.1376 9.91716 19.6692 9.57319 20.2092 9.68891C20.7493 9.80463 21.0932 10.3362 20.9775 10.8762L16.9775 29.5429C16.8787 30.004 16.4713 30.3334 15.9997 30.3334C15.5282 30.3334 15.1207 30.004 15.0219 29.5429L11.0219 10.8762C10.9062 10.3362 11.2502 9.80463 11.7902 9.68891Z" fill="#1B1B29"/>
</svg>
