<svg width="20" height="18" viewBox="0 0 20 18" fill="none" xmlns="http://www.w3.org/2000/svg">
<g clip-path="url(#clip0_4008_11401)">
<path fill-rule="evenodd" clip-rule="evenodd" d="M2.56026 1.22146C2.68681 0.936713 2.99323 0.75 3.33399 0.75H16.6673C17.0081 0.75 17.3145 0.936713 17.4411 1.22146L19.1077 4.97146C19.2096 5.20077 19.1796 5.46053 19.0274 5.66603L10.694 16.916C10.5395 17.1247 10.2793 17.25 10.0007 17.25C9.72203 17.25 9.46183 17.1247 9.30728 16.916L0.973946 5.66603C0.821729 5.46053 0.791676 5.20077 0.893591 4.97146L2.56026 1.22146ZM3.89818 2.25L2.60385 5.16224L10.0007 15.1479L17.3975 5.16224L16.1031 2.25H3.89818Z" fill="#6C9AF5"/>
<path fill-rule="evenodd" clip-rule="evenodd" d="M5.84952 1.35291C5.92742 1.00234 6.26943 0.75 6.66667 0.75H13.3333C13.7306 0.75 14.0726 1.00234 14.1505 1.35291L14.9838 5.10291C15.0123 5.2309 15.0031 5.36335 14.9572 5.48717L10.7906 16.7372C10.6771 17.0434 10.3587 17.25 10 17.25C9.64131 17.25 9.32286 17.0434 9.20943 16.7372L5.04276 5.48717C4.9969 5.36335 4.98774 5.2309 5.01618 5.10291L5.84952 1.35291ZM7.34984 2.25L6.69389 5.20178L10 14.1283L13.3061 5.20178L12.6502 2.25H7.34984Z" fill="#6C9AF5"/>
<path fill-rule="evenodd" clip-rule="evenodd" d="M1.66797 4.5H18.3346V6H1.66797V4.5Z" fill="#6C9AF5"/>
</g>
<defs>
<clipPath id="clip0_4008_11401">
<rect width="20" height="18" fill="white"/>
</clipPath>
</defs>
</svg>
