<svg width="20" height="18" viewBox="0 0 20 18" fill="none" xmlns="http://www.w3.org/2000/svg">
<path fill-rule="evenodd" clip-rule="evenodd" d="M2.55928 1.22146C2.68583 0.936713 2.99226 0.75 3.33301 0.75H16.6663C17.0071 0.75 17.3135 0.936713 17.4401 1.22146L19.1067 4.97146C19.2087 5.20077 19.1786 5.46053 19.0264 5.66603L10.6931 16.916C10.5385 17.1247 10.2783 17.25 9.99968 17.25C9.72105 17.25 9.46086 17.1247 9.3063 16.916L0.972969 5.66603C0.820752 5.46053 0.790699 5.20077 0.892614 4.97146L2.55928 1.22146ZM3.89721 2.25L2.60288 5.16224L9.99968 15.1479L17.3965 5.16224L16.1021 2.25H3.89721Z" fill="#57E06C"/>
<path fill-rule="evenodd" clip-rule="evenodd" d="M5.84952 1.35291C5.92742 1.00234 6.26943 0.75 6.66667 0.75H13.3333C13.7306 0.75 14.0726 1.00234 14.1505 1.35291L14.9838 5.10291C15.0123 5.2309 15.0031 5.36335 14.9572 5.48717L10.7906 16.7372C10.6771 17.0434 10.3587 17.25 10 17.25C9.64131 17.25 9.32286 17.0434 9.20943 16.7372L5.04276 5.48717C4.9969 5.36335 4.98774 5.2309 5.01618 5.10291L5.84952 1.35291ZM7.34984 2.25L6.69389 5.20178L10 14.1283L13.3061 5.20178L12.6502 2.25H7.34984Z" fill="#57E06C"/>
<path fill-rule="evenodd" clip-rule="evenodd" d="M1.66602 4.5H18.3327V6H1.66602V4.5Z" fill="#57E06C"/>
</svg>
