<svg width="20" height="20" viewBox="0 0 20 20" fill="none" xmlns="http://www.w3.org/2000/svg">
<path fill-rule="evenodd" clip-rule="evenodd" d="M9.99935 1.04167C5.0518 1.04167 1.04102 5.05245 1.04102 10C1.04102 14.9476 5.0518 18.9583 9.99935 18.9583C14.9469 18.9583 18.9577 14.9476 18.9577 10C18.9577 5.05245 14.9469 1.04167 9.99935 1.04167Z" fill="#EE4D4D"/>
<path fill-rule="evenodd" clip-rule="evenodd" d="M6.02202 6.02252C6.2661 5.77844 6.66183 5.77844 6.9059 6.02252L13.977 13.0936C14.221 13.3377 14.221 13.7334 13.977 13.9775C13.7329 14.2215 13.3372 14.2215 13.0931 13.9775L6.02202 6.9064C5.77794 6.66233 5.77794 6.2666 6.02202 6.02252Z" fill="#F9F9F9"/>
<path fill-rule="evenodd" clip-rule="evenodd" d="M6.02095 13.9775C5.77687 13.7334 5.77687 13.3377 6.02095 13.0936L13.092 6.02253C13.3361 5.77845 13.7318 5.77845 13.9759 6.02253C14.22 6.26661 14.22 6.66234 13.9759 6.90641L6.90483 13.9775C6.66075 14.2216 6.26503 14.2216 6.02095 13.9775Z" fill="#F9F9F9"/>
</svg>
