<svg width="25" height="25" viewBox="0 0 25 25" fill="none" xmlns="http://www.w3.org/2000/svg">
<path d="M12.5 1.75C6.56294 1.75 1.75 6.56294 1.75 12.5C1.75 18.4371 6.56294 23.25 12.5 23.25C18.4371 23.25 23.25 18.4371 23.25 12.5C23.25 6.56294 18.4371 1.75 12.5 1.75Z" fill="#EE4D4D"/>
<path fill-rule="evenodd" clip-rule="evenodd" d="M19.5526 4.38672L12.5 11.4394L5.44734 4.38673C5.0697 4.71528 4.71523 5.06976 4.38668 5.44739L10.6893 11.7501H1.77576C1.75868 11.9978 1.75 12.2479 1.75 12.5001C1.75 12.7522 1.75868 13.0023 1.77576 13.2501H10.6893L4.38669 19.5527C4.71524 19.9304 5.06971 20.2848 5.44735 20.6134L11.75 14.3107V23.2243C11.9978 23.2414 12.2479 23.2501 12.5 23.2501C12.7521 23.2501 13.0022 23.2414 13.25 23.2243V14.3107L19.5527 20.6134C19.9303 20.2848 20.2848 19.9303 20.6133 19.5527L14.3107 13.2501H23.2242C23.2413 13.0023 23.25 12.7522 23.25 12.5001C23.25 12.2479 23.2413 11.9978 23.2242 11.7501H14.3106L20.6133 5.44738C20.2848 5.06974 19.9303 4.71526 19.5526 4.38672Z" fill="#FFC44D"/>
<path d="M11.846 7.86707C11.846 7.86707 11.846 7.86718 12.5 7.5C13.154 7.86718 13.1544 7.86635 13.1544 7.86635C13.0217 8.1028 12.7712 8.25 12.5 8.25C12.2288 8.25 11.9787 8.10351 11.846 7.86707Z" fill="#ECEFF1"/>
<path d="M11.846 7.86707L12.5 7.5L13.1544 7.86635L13.1591 7.8581L13.1724 7.83411L13.2218 7.74467C13.2641 7.66775 13.3241 7.55751 13.396 7.42284C13.5395 7.15405 13.7316 6.78537 13.9245 6.38855C14.1164 5.99392 14.3143 5.5605 14.466 5.16475C14.604 4.80447 14.75 4.36257 14.75 4C14.75 2.75736 13.7426 1.75 12.5 1.75C11.2574 1.75 10.25 2.75736 10.25 4C10.25 4.36257 10.396 4.80447 10.534 5.16475C10.6857 5.5605 10.8836 5.99392 11.0755 6.38855C11.2684 6.78537 11.4605 7.15405 11.604 7.42284C11.6759 7.55751 11.7359 7.66775 11.7782 7.74467L11.8276 7.83411L11.8409 7.8581L11.846 7.86707Z" fill="#ECEFF1"/>
</svg>
