<svg width="21" height="20" viewBox="0 0 21 20" fill="none" xmlns="http://www.w3.org/2000/svg">
<g clip-path="url(#clip0_4004_12144)">
<path d="M10.5 0C7.84844 0 5.30312 1.05422 3.42969 2.92891C1.55432 4.80434 0.500519 7.34778 0.5 10C0.5 12.6511 1.55469 15.1964 3.42969 17.0711C5.30312 18.9458 7.84844 20 10.5 20C13.1516 20 15.6969 18.9458 17.5703 17.0711C19.4453 15.1964 20.5 12.6511 20.5 10C20.5 7.34891 19.4453 4.80359 17.5703 2.92891C15.6969 1.05422 13.1516 0 10.5 0Z" fill="#11111B"/>
<path d="M5.02572 9.89404C7.94135 8.62404 9.8851 7.7867 10.857 7.38217C13.6351 6.22701 14.2117 6.02639 14.5882 6.01959C14.671 6.01826 14.8554 6.03873 14.9757 6.136C15.0757 6.21803 15.1038 6.32897 15.1179 6.40686C15.1304 6.48467 15.1476 6.66201 15.1335 6.80045C14.9835 8.3817 14.332 12.2189 14.0007 13.99C13.8617 14.7394 13.5851 14.9906 13.3179 15.0151C12.7367 15.0686 12.296 14.6314 11.7335 14.2628C10.8538 13.6858 10.357 13.3267 9.50229 12.7637C8.51478 12.1131 9.15541 11.7554 9.71791 11.1711C9.86479 11.0181 12.4242 8.69076 12.4726 8.47967C12.4788 8.45326 12.4851 8.35482 12.4257 8.30295C12.3679 8.25092 12.282 8.26873 12.2195 8.28279C12.1304 8.30279 10.7257 9.23217 8.00072 11.0708C7.60228 11.3448 7.24135 11.4784 6.91635 11.4714C6.5601 11.4637 5.8726 11.2695 5.36166 11.1036C4.73666 10.9 4.23822 10.7923 4.28197 10.4465C4.30385 10.2665 4.55229 10.0823 5.02572 9.89404Z" fill="white"/>
</g>
<defs>
<clipPath id="clip0_4004_12144">
<rect width="20" height="20" fill="white" transform="translate(0.5)"/>
</clipPath>
</defs>
</svg>
