<svg width="243" height="17" viewBox="0 0 243 17" fill="none" xmlns="http://www.w3.org/2000/svg">
<path d="M6.4267 4.89193C7.45841 4.89193 8.39698 5.15755 9.2424 5.6888C10.0878 6.21267 10.7506 6.93945 11.2306 7.86914C11.7106 8.79145 11.9506 9.81706 11.9506 10.946C11.9506 12.0749 11.7106 13.1042 11.2306 14.0339C10.7506 14.9562 10.0878 15.6829 9.2424 16.2142C8.39698 16.7381 7.45841 17 6.4267 17C5.60992 17 4.8648 16.8303 4.19132 16.4909C3.51785 16.1515 2.94467 15.6682 2.47181 15.041V16.7233H0V0.398438H2.47181V6.83984C2.93751 6.22005 3.5071 5.74045 4.18058 5.40104C4.86122 5.06163 5.60992 4.89193 6.4267 4.89193ZM3.46053 13.5137C4.12684 14.1999 4.95436 14.543 5.94308 14.543C6.9318 14.543 7.75574 14.1999 8.41489 13.5137C9.07403 12.8201 9.40361 11.9642 9.40361 10.946C9.40361 9.92773 9.07403 9.07183 8.41489 8.37825C7.75574 7.68468 6.9318 7.33789 5.94308 7.33789C4.95436 7.33789 4.12684 7.68468 3.46053 8.37825C2.80138 9.07183 2.47181 9.92773 2.47181 10.946C2.47181 11.9642 2.80138 12.8201 3.46053 13.5137Z" fill="white"/>
<path d="M15.4649 3.20964C15.0207 3.20964 14.6481 3.05469 14.3472 2.74479C14.0463 2.4349 13.8958 2.0549 13.8958 1.60482C13.8958 1.13997 14.0463 0.756293 14.3472 0.453776C14.6481 0.151259 15.0207 0 15.4649 0C15.9163 0 16.2924 0.151259 16.5933 0.453776C16.8943 0.756293 17.0447 1.13997 17.0447 1.60482C17.0447 2.06228 16.8943 2.44596 16.5933 2.75586C16.2924 3.05838 15.9163 3.20964 15.4649 3.20964ZM14.229 16.7233V5.16862H16.7008V16.7233H14.229Z" fill="white"/>
<path d="M26.3838 7.4707H23.2135V12.9382C23.2135 13.4694 23.3532 13.8715 23.6326 14.1445C23.9192 14.4102 24.324 14.543 24.847 14.543C25.3414 14.543 25.8537 14.4102 26.3838 14.1445V16.5241C25.7748 16.8414 25.0906 17 24.3312 17C23.149 17 22.257 16.679 21.6552 16.0371C21.0533 15.3952 20.7524 14.4987 20.7524 13.3477V7.4707H18.8502V5.16862H20.7524V2.16927H23.2135V5.16862H26.3838V7.4707Z" fill="white"/>
<path d="M33.5521 17C31.8397 17 30.4104 16.4208 29.264 15.2624C28.1177 14.1039 27.5445 12.6651 27.5445 10.946C27.5445 9.22678 28.1177 7.78798 29.264 6.62956C30.4104 5.47114 31.8397 4.89193 33.5521 4.89193C34.6626 4.89193 35.6692 5.15017 36.572 5.66667C37.4747 6.18316 38.184 6.88411 38.6999 7.76953L36.5612 9.10872C36.2603 8.56272 35.8448 8.13108 35.3146 7.8138C34.7844 7.49653 34.1969 7.33789 33.5521 7.33789C32.5634 7.33789 31.7358 7.68468 31.0695 8.37825C30.4032 9.07183 30.0701 9.92773 30.0701 10.946C30.0701 11.9642 30.4032 12.8201 31.0695 13.5137C31.7358 14.1999 32.5634 14.543 33.5521 14.543C34.2041 14.543 34.7916 14.3843 35.3146 14.0671C35.8448 13.7498 36.2603 13.3218 36.5612 12.7832L38.6999 14.1113C38.184 14.9967 37.4711 15.7014 36.5612 16.2253C35.6585 16.7418 34.6554 17 33.5521 17Z" fill="white"/>
<path d="M45.8681 17C44.1558 17 42.7264 16.4208 41.5801 15.2624C40.4337 14.1039 39.8606 12.6651 39.8606 10.946C39.8606 9.22678 40.4337 7.78798 41.5801 6.62956C42.7264 5.47114 44.1558 4.89193 45.8681 4.89193C46.9858 4.89193 48.0032 5.15755 48.9203 5.6888C49.8445 6.21267 50.5681 6.93945 51.0912 7.86914C51.6142 8.79145 51.8757 9.81706 51.8757 10.946C51.8757 12.0749 51.6142 13.1042 51.0912 14.0339C50.5681 14.9562 49.8445 15.6829 48.9203 16.2142C48.0032 16.7381 46.9858 17 45.8681 17ZM43.3856 13.5137C44.0519 14.1999 44.8794 14.543 45.8681 14.543C46.8568 14.543 47.6772 14.1999 48.3292 13.5137C48.9883 12.8201 49.3179 11.9642 49.3179 10.946C49.3179 9.92036 48.9883 9.06445 48.3292 8.37825C47.6772 7.68468 46.8568 7.33789 45.8681 7.33789C44.8794 7.33789 44.0519 7.68468 43.3856 8.37825C42.7193 9.07183 42.3861 9.92773 42.3861 10.946C42.3861 11.9642 42.7193 12.8201 43.3856 13.5137Z" fill="white"/>
<path d="M55.3362 3.20964C54.892 3.20964 54.5194 3.05469 54.2185 2.74479C53.9176 2.4349 53.7672 2.0549 53.7672 1.60482C53.7672 1.13997 53.9176 0.756293 54.2185 0.453776C54.5194 0.151259 54.892 0 55.3362 0C55.7876 0 56.1637 0.151259 56.4646 0.453776C56.7656 0.756293 56.916 1.13997 56.916 1.60482C56.916 2.06228 56.7656 2.44596 56.4646 2.75586C56.1637 3.05838 55.7876 3.20964 55.3362 3.20964ZM54.1003 16.7233V5.16862H56.5721V16.7233H54.1003Z" fill="white"/>
<path d="M65.75 4.89193C67.0827 4.89193 68.1538 5.30881 68.9634 6.14258C69.7802 6.97635 70.1885 8.07943 70.1885 9.45182V16.7233H67.7275V10.2819C67.7275 9.39648 67.4731 8.68446 66.9644 8.14583C66.4557 7.6072 65.7787 7.33789 64.9333 7.33789C64.0448 7.33789 63.3284 7.61089 62.7839 8.1569C62.2394 8.70291 61.9671 9.426 61.9671 10.3262V16.7233H59.4953V5.16862H61.9671V6.66276C62.8913 5.4822 64.1523 4.89193 65.75 4.89193Z" fill="white"/>
<path d="M78.2595 17C76.5472 17 75.1178 16.4208 73.9715 15.2624C72.8251 14.1039 72.252 12.6651 72.252 10.946C72.252 9.22678 72.8251 7.78798 73.9715 6.62956C75.1178 5.47114 76.5472 4.89193 78.2595 4.89193C79.37 4.89193 80.3767 5.15017 81.2794 5.66667C82.1822 6.18316 82.8915 6.88411 83.4073 7.76953L81.2687 9.10872C80.9678 8.56272 80.5522 8.13108 80.022 7.8138C79.4918 7.49653 78.9043 7.33789 78.2595 7.33789C77.2708 7.33789 76.4433 7.68468 75.777 8.37825C75.1107 9.07183 74.7775 9.92773 74.7775 10.946C74.7775 11.9642 75.1107 12.8201 75.777 13.5137C76.4433 14.1999 77.2708 14.543 78.2595 14.543C78.9115 14.543 79.499 14.3843 80.022 14.0671C80.5522 13.7498 80.9678 13.3218 81.2687 12.7832L83.4073 14.1113C82.8915 14.9967 82.1786 15.7014 81.2687 16.2253C80.3659 16.7418 79.3629 17 78.2595 17Z" fill="#57E06C"/>
<path d="M94.0683 5.16862H96.5401V16.7233H94.0683V15.0632C93.0796 16.3544 91.7685 17 90.1349 17C89.0961 17 88.1539 16.7381 87.3085 16.2142C86.4631 15.6829 85.8003 14.9562 85.3203 14.0339C84.8474 13.1115 84.611 12.0822 84.611 10.946C84.611 9.80968 84.8474 8.78038 85.3203 7.85807C85.8003 6.93576 86.4631 6.21267 87.3085 5.6888C88.1539 5.15755 89.0961 4.89193 90.1349 4.89193C91.7756 4.89193 93.0868 5.53385 94.0683 6.81771V5.16862ZM90.6186 14.543C91.6073 14.543 92.4276 14.1999 93.0796 13.5137C93.7388 12.8201 94.0683 11.9642 94.0683 10.946C94.0683 9.92036 93.7388 9.06445 93.0796 8.37825C92.4276 7.68468 91.6073 7.33789 90.6186 7.33789C89.6227 7.33789 88.7916 7.68468 88.1253 8.37825C87.4661 9.06445 87.1365 9.92036 87.1365 10.946C87.1365 11.9642 87.4661 12.8201 88.1253 13.5137C88.7916 14.1999 89.6227 14.543 90.6186 14.543Z" fill="#57E06C"/>
<path d="M103.278 17C101.473 17 99.9183 16.4097 98.6143 15.2292L99.8932 13.4362C100.817 14.3438 101.932 14.7975 103.236 14.7975C103.887 14.7975 104.421 14.6868 104.837 14.4655C105.252 14.2368 105.46 13.9232 105.46 13.5247C105.46 13.3477 105.414 13.189 105.32 13.0488C105.234 12.9086 105.127 12.7906 104.998 12.6947C104.876 12.5987 104.694 12.5065 104.45 12.418C104.206 12.3294 103.991 12.2593 103.805 12.2077C103.626 12.156 103.372 12.0896 103.042 12.0085C102.712 11.9273 102.444 11.8609 102.236 11.8092C102.028 11.7502 101.767 11.6654 101.452 11.5547C101.136 11.444 100.875 11.3333 100.667 11.2227C100.466 11.112 100.248 10.9644 100.011 10.7799C99.775 10.5955 99.5887 10.3963 99.4526 10.1823C99.3164 9.96832 99.2018 9.71376 99.1087 9.41862C99.0155 9.12348 98.969 8.79883 98.969 8.44466C98.969 7.6773 99.1767 7.02062 99.5923 6.47461C100.008 5.9286 100.545 5.53016 101.204 5.2793C101.863 5.02105 102.609 4.89193 103.44 4.89193C105.08 4.89193 106.503 5.40473 107.706 6.43034L106.406 8.22331C105.546 7.4707 104.572 7.0944 103.483 7.0944C102.902 7.0944 102.422 7.19401 102.043 7.39323C101.67 7.59245 101.484 7.8839 101.484 8.26758C101.484 8.41515 101.509 8.54796 101.559 8.66602C101.609 8.78407 101.695 8.89106 101.817 8.98698C101.946 9.0829 102.068 9.16406 102.182 9.23047C102.297 9.29688 102.465 9.36697 102.687 9.44075C102.917 9.50716 103.107 9.5625 103.257 9.60677C103.415 9.64366 103.637 9.69531 103.923 9.76172C104.246 9.8355 104.511 9.90191 104.719 9.96094C104.934 10.0126 105.195 10.0938 105.503 10.2044C105.818 10.3077 106.08 10.4184 106.288 10.5365C106.495 10.6471 106.714 10.7947 106.943 10.9792C107.172 11.1562 107.355 11.3518 107.491 11.5658C107.635 11.7724 107.749 12.0232 107.835 12.3184C107.928 12.6135 107.975 12.9345 107.975 13.2812C107.975 14.056 107.764 14.7311 107.341 15.3066C106.918 15.8748 106.356 16.299 105.654 16.5794C104.959 16.8598 104.167 17 103.278 17Z" fill="#57E06C"/>
<path d="M111.306 3.20964C110.862 3.20964 110.49 3.05469 110.189 2.74479C109.888 2.4349 109.737 2.0549 109.737 1.60482C109.737 1.13997 109.888 0.756293 110.189 0.453776C110.49 0.151259 110.862 0 111.306 0C111.758 0 112.134 0.151259 112.435 0.453776C112.736 0.756293 112.886 1.13997 112.886 1.60482C112.886 2.06228 112.736 2.44596 112.435 2.75586C112.134 3.05838 111.758 3.20964 111.306 3.20964ZM110.071 16.7233V5.16862H112.542V16.7233H110.071Z" fill="#57E06C"/>
<path d="M121.72 4.89193C123.053 4.89193 124.124 5.30881 124.934 6.14258C125.75 6.97635 126.159 8.07943 126.159 9.45182V16.7233H123.698V10.2819C123.698 9.39648 123.443 8.68446 122.935 8.14583C122.426 7.6072 121.749 7.33789 120.904 7.33789C120.015 7.33789 119.299 7.61089 118.754 8.1569C118.21 8.70291 117.937 9.426 117.937 10.3262V16.7233H115.466V5.16862H117.937V6.66276C118.862 5.4822 120.123 4.89193 121.72 4.89193Z" fill="#57E06C"/>
<path d="M134.23 17C132.517 17 131.088 16.4208 129.942 15.2624C128.795 14.1039 128.222 12.6651 128.222 10.946C128.222 9.22678 128.795 7.78798 129.942 6.62956C131.088 5.47114 132.517 4.89193 134.23 4.89193C135.347 4.89193 136.365 5.15755 137.282 5.6888C138.206 6.21267 138.93 6.93945 139.453 7.86914C139.976 8.79145 140.237 9.81706 140.237 10.946C140.237 12.0749 139.976 13.1042 139.453 14.0339C138.93 14.9562 138.206 15.6829 137.282 16.2142C136.365 16.7381 135.347 17 134.23 17ZM131.747 13.5137C132.414 14.1999 133.241 14.543 134.23 14.543C135.219 14.543 136.039 14.1999 136.691 13.5137C137.35 12.8201 137.68 11.9642 137.68 10.946C137.68 9.92036 137.35 9.06445 136.691 8.37825C136.039 7.68468 135.219 7.33789 134.23 7.33789C133.241 7.33789 132.414 7.68468 131.747 8.37825C131.081 9.07183 130.748 9.92773 130.748 10.946C130.748 11.9642 131.081 12.8201 131.747 13.5137Z" fill="#57E06C"/>
<path d="M148.889 4.89193C149.92 4.89193 150.859 5.15755 151.704 5.6888C152.55 6.21267 153.213 6.93945 153.693 7.86914C154.173 8.79145 154.413 9.81706 154.413 10.946C154.413 12.0749 154.173 13.1042 153.693 14.0339C153.213 14.9562 152.55 15.6829 151.704 16.2142C150.859 16.7381 149.92 17 148.889 17C148.072 17 147.327 16.8303 146.653 16.4909C145.98 16.1515 145.407 15.6682 144.934 15.041V16.7233H142.462V0.398438H144.934V6.83984C145.4 6.22005 145.969 5.74045 146.643 5.40104C147.323 5.06163 148.072 4.89193 148.889 4.89193ZM145.923 13.5137C146.589 14.1999 147.416 14.543 148.405 14.543C149.394 14.543 150.218 14.1999 150.877 13.5137C151.536 12.8201 151.866 11.9642 151.866 10.946C151.866 9.92773 151.536 9.07183 150.877 8.37825C150.218 7.68468 149.394 7.33789 148.405 7.33789C147.416 7.33789 146.589 7.68468 145.923 8.37825C145.263 9.07183 144.934 9.92773 144.934 10.946C144.934 11.9642 145.263 12.8201 145.923 13.5137Z" fill="white"/>
<path d="M165.514 5.16862H167.986V16.7233H165.514V15.0632C164.526 16.3544 163.214 17 161.581 17C160.542 17 159.6 16.7381 158.754 16.2142C157.909 15.6829 157.246 14.9562 156.766 14.0339C156.293 13.1115 156.057 12.0822 156.057 10.946C156.057 9.80968 156.293 8.78038 156.766 7.85807C157.246 6.93576 157.909 6.21267 158.754 5.6888C159.6 5.15755 160.542 4.89193 161.581 4.89193C163.222 4.89193 164.533 5.53385 165.514 6.81771V5.16862ZM162.064 14.543C163.053 14.543 163.874 14.1999 164.526 13.5137C165.185 12.8201 165.514 11.9642 165.514 10.946C165.514 9.92036 165.185 9.06445 164.526 8.37825C163.874 7.68468 163.053 7.33789 162.064 7.33789C161.069 7.33789 160.238 7.68468 159.571 8.37825C158.912 9.06445 158.582 9.92036 158.582 10.946C158.582 11.9642 158.912 12.8201 159.571 13.5137C160.238 14.1999 161.069 14.543 162.064 14.543Z" fill="white"/>
<path d="M174.724 17C172.919 17 171.364 16.4097 170.06 15.2292L171.339 13.4362C172.263 14.3438 173.377 14.7975 174.681 14.7975C175.333 14.7975 175.867 14.6868 176.283 14.4655C176.698 14.2368 176.906 13.9232 176.906 13.5247C176.906 13.3477 176.859 13.189 176.766 13.0488C176.68 12.9086 176.573 12.7906 176.444 12.6947C176.322 12.5987 176.139 12.5065 175.896 12.418C175.652 12.3294 175.437 12.2593 175.251 12.2077C175.072 12.156 174.818 12.0896 174.488 12.0085C174.158 11.9273 173.89 11.8609 173.682 11.8092C173.474 11.7502 173.213 11.6654 172.897 11.5547C172.582 11.444 172.321 11.3333 172.113 11.2227C171.912 11.112 171.694 10.9644 171.457 10.7799C171.221 10.5955 171.035 10.3963 170.898 10.1823C170.762 9.96832 170.648 9.71376 170.555 9.41862C170.461 9.12348 170.415 8.79883 170.415 8.44466C170.415 7.6773 170.623 7.02062 171.038 6.47461C171.454 5.9286 171.991 5.53016 172.65 5.2793C173.309 5.02105 174.055 4.89193 174.886 4.89193C176.526 4.89193 177.949 5.40473 179.152 6.43034L177.852 8.22331C176.992 7.4707 176.018 7.0944 174.929 7.0944C174.348 7.0944 173.868 7.19401 173.489 7.39323C173.116 7.59245 172.93 7.8839 172.93 8.26758C172.93 8.41515 172.955 8.54796 173.005 8.66602C173.055 8.78407 173.141 8.89106 173.263 8.98698C173.392 9.0829 173.514 9.16406 173.628 9.23047C173.743 9.29688 173.911 9.36697 174.133 9.44075C174.363 9.50716 174.552 9.5625 174.703 9.60677C174.861 9.64366 175.083 9.69531 175.369 9.76172C175.692 9.8355 175.957 9.90191 176.165 9.96094C176.379 10.0126 176.641 10.0938 176.949 10.2044C177.264 10.3077 177.526 10.4184 177.734 10.5365C177.941 10.6471 178.16 10.7947 178.389 10.9792C178.618 11.1562 178.801 11.3518 178.937 11.5658C179.081 11.7724 179.195 12.0232 179.281 12.3184C179.374 12.6135 179.421 12.9345 179.421 13.2812C179.421 14.056 179.21 14.7311 178.787 15.3066C178.364 15.8748 177.802 16.299 177.1 16.5794C176.405 16.8598 175.613 17 174.724 17Z" fill="white"/>
<path d="M192.65 10.9681C192.65 11.3075 192.629 11.6395 192.586 11.9642H183.494C183.695 12.798 184.117 13.4657 184.762 13.9674C185.414 14.4618 186.195 14.709 187.105 14.709C187.807 14.709 188.459 14.5577 189.061 14.2552C189.67 13.9527 190.143 13.5727 190.48 13.1152L192.145 14.5872C191.565 15.3398 190.827 15.9301 189.931 16.3581C189.043 16.786 188.079 17 187.04 17C185.264 17 183.784 16.4171 182.602 15.2513C181.427 14.0855 180.839 12.6356 180.839 10.9017C180.839 9.78016 181.097 8.76194 181.613 7.847C182.129 6.9247 182.838 6.20161 183.741 5.67773C184.651 5.15386 185.658 4.89193 186.761 4.89193C188.445 4.89193 189.845 5.47114 190.963 6.62956C192.088 7.7806 192.65 9.22678 192.65 10.9681ZM186.74 7.18294C185.944 7.18294 185.249 7.43012 184.655 7.92448C184.067 8.41884 183.673 9.07183 183.472 9.88346H190.017C189.831 9.07183 189.437 8.41884 188.835 7.92448C188.241 7.43012 187.542 7.18294 186.74 7.18294Z" fill="white"/>
<path d="M195.649 16.9004C195.154 16.9004 194.735 16.7307 194.391 16.3913C194.055 16.0519 193.886 15.6276 193.886 15.1185C193.886 14.6094 194.055 14.1814 194.391 13.8346C194.735 13.4805 195.154 13.3034 195.649 13.3034C196.15 13.3034 196.569 13.4805 196.906 13.8346C197.243 14.1814 197.411 14.6094 197.411 15.1185C197.411 15.6276 197.243 16.0519 196.906 16.3913C196.569 16.7307 196.15 16.9004 195.649 16.9004Z" fill="white"/>
<path d="M204.751 17C203.039 17 201.61 16.4208 200.463 15.2624C199.317 14.1039 198.744 12.6651 198.744 10.946C198.744 9.22678 199.317 7.78798 200.463 6.62956C201.61 5.47114 203.039 4.89193 204.751 4.89193C205.862 4.89193 206.869 5.15017 207.771 5.66667C208.674 6.18316 209.383 6.88411 209.899 7.76953L207.761 9.10872C207.46 8.56272 207.044 8.13108 206.514 7.8138C205.984 7.49653 205.396 7.33789 204.751 7.33789C203.763 7.33789 202.935 7.68468 202.269 8.37825C201.603 9.07183 201.269 9.92773 201.269 10.946C201.269 11.9642 201.603 12.8201 202.269 13.5137C202.935 14.1999 203.763 14.543 204.751 14.543C205.403 14.543 205.991 14.3843 206.514 14.0671C207.044 13.7498 207.46 13.3218 207.761 12.7832L209.899 14.1113C209.383 14.9967 208.671 15.7014 207.761 16.2253C206.858 16.7418 205.855 17 204.751 17Z" fill="white"/>
<path d="M217.068 17C215.355 17 213.926 16.4208 212.779 15.2624C211.633 14.1039 211.06 12.6651 211.06 10.946C211.06 9.22678 211.633 7.78798 212.779 6.62956C213.926 5.47114 215.355 4.89193 217.068 4.89193C218.185 4.89193 219.203 5.15755 220.12 5.6888C221.044 6.21267 221.768 6.93945 222.291 7.86914C222.814 8.79145 223.075 9.81706 223.075 10.946C223.075 12.0749 222.814 13.1042 222.291 14.0339C221.768 14.9562 221.044 15.6829 220.12 16.2142C219.203 16.7381 218.185 17 217.068 17ZM214.585 13.5137C215.251 14.1999 216.079 14.543 217.068 14.543C218.056 14.543 218.877 14.1999 219.529 13.5137C220.188 12.8201 220.517 11.9642 220.517 10.946C220.517 9.92036 220.188 9.06445 219.529 8.37825C218.877 7.68468 218.056 7.33789 217.068 7.33789C216.079 7.33789 215.251 7.68468 214.585 8.37825C213.919 9.07183 213.586 9.92773 213.586 10.946C213.586 11.9642 213.919 12.8201 214.585 13.5137Z" fill="white"/>
<path d="M238.798 4.89193C240.073 4.89193 241.091 5.28667 241.85 6.07617C242.617 6.86567 243 7.91341 243 9.2194V16.7233H240.528V9.972C240.528 9.17513 240.303 8.53689 239.851 8.05729C239.4 7.57769 238.798 7.33789 238.046 7.33789C237.25 7.33789 236.606 7.58507 236.111 8.07943C235.624 8.57378 235.38 9.2194 235.38 10.0163V16.7233H232.919V9.972C232.919 9.17513 232.69 8.53689 232.232 8.05729C231.78 7.57769 231.178 7.33789 230.426 7.33789C229.638 7.33789 228.997 7.58507 228.502 8.07943C228.015 8.56641 227.772 9.21202 227.772 10.0163V16.7233H225.3V5.16862H227.772V6.51888C228.624 5.43424 229.781 4.89193 231.243 4.89193C232.06 4.89193 232.78 5.0727 233.403 5.43424C234.026 5.78841 234.51 6.28646 234.854 6.92839C235.764 5.57075 237.078 4.89193 238.798 4.89193Z" fill="white"/>
</svg>
