<svg width="59" height="15" viewBox="0 0 59 15" fill="none" xmlns="http://www.w3.org/2000/svg">
<path d="M6.54894 2.92705C6.8483 2.00574 8.1517 2.00574 8.45106 2.92705L8.95934 4.49139C9.09321 4.90341 9.47717 5.18237 9.9104 5.18237H11.5552C12.524 5.18237 12.9267 6.42199 12.143 6.99139L10.8123 7.9582C10.4618 8.21285 10.3152 8.66422 10.449 9.07624L10.9573 10.6406C11.2567 11.5619 10.2022 12.328 9.41849 11.7586L8.08779 10.7918C7.7373 10.5372 7.2627 10.5372 6.91221 10.7918L5.58151 11.7586C4.7978 12.328 3.74331 11.5619 4.04267 10.6406L4.55095 9.07624C4.68483 8.66422 4.53817 8.21285 4.18768 7.9582L2.85698 6.99139C2.07326 6.42199 2.47604 5.18237 3.44476 5.18237H5.0896C5.52283 5.18237 5.90678 4.90341 6.04066 4.49139L6.54894 2.92705Z" fill="#57E06C"/>
<path d="M17.5489 2.92705C17.8483 2.00574 19.1517 2.00574 19.4511 2.92705L19.9593 4.49139C20.0932 4.90341 20.4772 5.18237 20.9104 5.18237H22.5552C23.524 5.18237 23.9267 6.42199 23.143 6.99139L21.8123 7.9582C21.4618 8.21285 21.3152 8.66422 21.449 9.07624L21.9573 10.6406C22.2567 11.5619 21.2022 12.328 20.4185 11.7586L19.0878 10.7918C18.7373 10.5372 18.2627 10.5372 17.9122 10.7918L16.5815 11.7586C15.7978 12.328 14.7433 11.5619 15.0427 10.6406L15.551 9.07624C15.6848 8.66422 15.5382 8.21285 15.1877 7.9582L13.857 6.99139C13.0733 6.42199 13.476 5.18237 14.4448 5.18237H16.0896C16.5228 5.18237 16.9068 4.90341 17.0407 4.49139L17.5489 2.92705Z" fill="#BEBEDA"/>
<path d="M28.5489 2.92705C28.8483 2.00574 30.1517 2.00574 30.4511 2.92705L30.9593 4.49139C31.0932 4.90341 31.4772 5.18237 31.9104 5.18237H33.5552C34.524 5.18237 34.9267 6.42199 34.143 6.99139L32.8123 7.9582C32.4618 8.21285 32.3152 8.66422 32.449 9.07624L32.9573 10.6406C33.2567 11.5619 32.2022 12.328 31.4185 11.7586L30.0878 10.7918C29.7373 10.5372 29.2627 10.5372 28.9122 10.7918L27.5815 11.7586C26.7978 12.328 25.7433 11.5619 26.0427 10.6406L26.551 9.07624C26.6848 8.66422 26.5382 8.21285 26.1877 7.9582L24.857 6.99139C24.0733 6.42199 24.476 5.18237 25.4448 5.18237H27.0896C27.5228 5.18237 27.9068 4.90341 28.0407 4.49139L28.5489 2.92705Z" fill="#BEBEDA"/>
<path d="M39.5489 2.92705C39.8483 2.00574 41.1517 2.00574 41.4511 2.92705L41.9593 4.49139C42.0932 4.90341 42.4772 5.18237 42.9104 5.18237H44.5552C45.524 5.18237 45.9267 6.42199 45.143 6.99139L43.8123 7.9582C43.4618 8.21285 43.3152 8.66422 43.449 9.07624L43.9573 10.6406C44.2567 11.5619 43.2022 12.328 42.4185 11.7586L41.0878 10.7918C40.7373 10.5372 40.2627 10.5372 39.9122 10.7918L38.5815 11.7586C37.7978 12.328 36.7433 11.5619 37.0427 10.6406L37.551 9.07624C37.6848 8.66422 37.5382 8.21285 37.1877 7.9582L35.857 6.99139C35.0733 6.42199 35.476 5.18237 36.4448 5.18237H38.0896C38.5228 5.18237 38.9068 4.90341 39.0407 4.49139L39.5489 2.92705Z" fill="#BEBEDA"/>
<path d="M50.5489 2.92705C50.8483 2.00574 52.1517 2.00574 52.4511 2.92705L52.9593 4.49139C53.0932 4.90341 53.4772 5.18237 53.9104 5.18237H55.5552C56.524 5.18237 56.9267 6.42199 56.143 6.99139L54.8123 7.9582C54.4618 8.21285 54.3152 8.66422 54.449 9.07624L54.9573 10.6406C55.2567 11.5619 54.2022 12.328 53.4185 11.7586L52.0878 10.7918C51.7373 10.5372 51.2627 10.5372 50.9122 10.7918L49.5815 11.7586C48.7978 12.328 47.7433 11.5619 48.0427 10.6406L48.551 9.07624C48.6848 8.66422 48.5382 8.21285 48.1877 7.9582L46.857 6.99139C46.0733 6.42199 46.476 5.18237 47.4448 5.18237H49.0896C49.5228 5.18237 49.9068 4.90341 50.0407 4.49139L50.5489 2.92705Z" fill="#BEBEDA"/>
</svg>
