<svg width="25" height="25" viewBox="0 0 25 25" fill="none" xmlns="http://www.w3.org/2000/svg">
<path d="M8.75 3.5C8.75 4.61561 9.02941 5.59007 9.71967 6.28033C9.75315 6.31381 9.7873 6.34633 9.82211 6.37789C8.56074 6.98582 7.45984 7.99108 6.58875 9.19683C5.13962 11.2027 4.25 13.8563 4.25 16.5C4.25 19.5418 6.32904 22.25 9.16667 22.25H15.8333C18.671 22.25 20.75 19.5418 20.75 16.5C20.75 13.8563 19.8604 11.2027 18.4112 9.19683C17.5402 7.99108 16.4393 6.98582 15.1779 6.37789C15.2127 6.34633 15.2468 6.31381 15.2803 6.28033C15.9706 5.59007 16.25 4.61561 16.25 3.5C16.25 3.08579 15.9142 2.75 15.5 2.75H9.5C9.08579 2.75 8.75 3.08579 8.75 3.5Z" fill="#5E94FF"/>
<path d="M15.5744 15.0825L15.6761 15.0048C16.4658 14.4015 16.8606 14.0999 16.964 13.8569C17.1628 13.3892 16.9793 12.8468 16.5374 12.5959C16.3078 12.4656 15.8042 12.4656 14.7969 12.4656C14.5981 12.4656 14.4987 12.4656 14.4122 12.4447C14.2154 12.3974 14.0461 12.2725 13.9428 12.0985C13.8974 12.022 13.8684 11.9282 13.8104 11.7406C13.5264 10.8215 13.3844 10.3619 13.2165 10.1895C12.8239 9.78624 12.1761 9.78624 11.7835 10.1895C11.6156 10.3619 11.4736 10.8215 11.1896 11.7406L11.1896 11.7406C11.1316 11.9282 11.1026 12.022 11.0572 12.0985C10.9539 12.2725 10.7846 12.3974 10.5878 12.4447C10.5013 12.4656 10.4019 12.4656 10.2031 12.4656C9.19584 12.4656 8.69222 12.4656 8.46257 12.5959C8.02067 12.8468 7.83719 13.3892 8.03604 13.8569C8.13938 14.0999 8.53422 14.4015 9.32389 15.0048L9.42556 15.0825L9.42556 15.0825C9.59434 15.2114 9.67873 15.2759 9.73838 15.3526C9.84729 15.4927 9.90298 15.667 9.89554 15.8443C9.89146 15.9414 9.86011 16.0429 9.7974 16.2458L9.7443 16.4176C9.47287 17.296 9.33715 17.7352 9.37494 17.967C9.46566 18.5234 9.99823 18.8949 10.5518 18.7879C10.7824 18.7433 11.1476 18.4642 11.8782 17.9061C12.0368 17.785 12.1161 17.7244 12.1984 17.6882C12.3906 17.6038 12.6094 17.6038 12.8016 17.6882C12.8839 17.7244 12.9632 17.785 13.1218 17.9061L13.1218 17.9061C13.8524 18.4642 14.2176 18.7433 14.4482 18.7879C15.0018 18.8949 15.5343 18.5234 15.6251 17.967C15.6628 17.7352 15.5271 17.296 15.2557 16.4177L15.2557 16.4176L15.2026 16.2458L15.2026 16.2458C15.1399 16.0429 15.1085 15.9414 15.1045 15.8443C15.097 15.667 15.1527 15.4927 15.2616 15.3526C15.3213 15.2759 15.4057 15.2114 15.5744 15.0825Z" fill="#124D7D"/>
</svg>
