<svg width="25" height="25" viewBox="0 0 25 25" fill="none" xmlns="http://www.w3.org/2000/svg">
<path d="M12.5 1.75C6.56294 1.75 1.75 6.56294 1.75 12.5C1.75 18.4371 6.56294 23.25 12.5 23.25C18.4371 23.25 23.25 18.4371 23.25 12.5C23.25 6.56294 18.4371 1.75 12.5 1.75Z" fill="#ECEFF1"/>
<path fill-rule="evenodd" clip-rule="evenodd" d="M12.5 4.75C12.9142 4.75 13.25 5.08579 13.25 5.5V9.5C13.25 9.91421 12.9142 10.25 12.5 10.25C12.0858 10.25 11.75 9.91421 11.75 9.5V5.5C11.75 5.08579 12.0858 4.75 12.5 4.75Z" fill="#8B98A6"/>
<path d="M12.9555 8.90401C12.6867 8.69866 12.3137 8.69866 12.0449 8.90401L9.42081 10.9086L6.34193 9.3324C5.97323 9.14364 5.52131 9.28952 5.33256 9.65823C5.1438 10.0269 5.28968 10.4788 5.65839 10.6676L8.87694 12.3153L9.77816 15.2317L7.03354 17.4128C6.70926 17.6705 6.65528 18.1423 6.91299 18.4666C7.17069 18.7909 7.64249 18.8449 7.96677 18.5872L10.9078 16.25H14.0925L17.0335 18.5872C17.3578 18.8449 17.8296 18.7909 18.0873 18.4666C18.345 18.1423 18.2911 17.6705 17.9668 17.4128L15.2222 15.2317L16.1165 12.3375L19.8068 10.6845C20.1848 10.5151 20.354 10.0714 20.1846 9.69339C20.0153 9.31537 19.5716 9.1462 19.1936 9.31553L15.6008 10.9249L12.9555 8.90401Z" fill="#8B98A6"/>
<path fill-rule="evenodd" clip-rule="evenodd" d="M12.0447 5.88798C12.3135 6.09333 12.6865 6.09333 12.9553 5.88798L15.9553 3.59619C16.2845 3.34473 16.3475 2.87406 16.096 2.5449C15.8446 2.21574 15.3739 2.15275 15.0447 2.40421L12.5 4.34819L9.95534 2.40421C9.62618 2.15275 9.1555 2.21574 8.90405 2.5449C8.65259 2.87406 8.71559 3.34473 9.04474 3.59619L12.0447 5.88798Z" fill="#8B98A6"/>
<path fill-rule="evenodd" clip-rule="evenodd" d="M12.9553 5.8878L15.9553 3.596C16.141 3.45411 16.25 3.23375 16.25 3.00001V2.42217C15.0824 1.98754 13.819 1.75 12.5 1.75C11.181 1.75 9.91756 1.98754 8.75 2.42217V3.00001C8.75 3.23375 8.85897 3.45411 9.0447 3.596L12.0447 5.8878C12.3135 6.09315 12.6865 6.09315 12.9553 5.8878Z" fill="#8B98A6"/>
<path fill-rule="evenodd" clip-rule="evenodd" d="M8.43257 22.4541L8.66156 22.1964C8.8117 22.0274 8.87762 21.7998 8.841 21.5767L8.22935 17.8514C8.17455 17.5176 7.90309 17.2618 7.56663 17.2269L3.81155 16.8374C3.64376 16.82 3.475 16.8597 3.33254 16.95L2.85526 17.2527C4.01257 19.5971 5.99946 21.4587 8.43257 22.4541ZM1.75709 12.8807H2.70361C2.84693 12.8807 2.98724 12.8397 3.10794 12.7624L6.28758 10.7272C6.57248 10.5448 6.70005 10.1943 6.59903 9.87149L5.4715 6.26857C5.42917 6.1333 5.34937 6.01279 5.24134 5.92101L4.51479 5.30371C2.7965 7.20915 1.75049 9.73264 1.75049 12.5004C1.75049 12.6277 1.7527 12.7545 1.75709 12.8807Z" fill="#8B98A6"/>
<path fill-rule="evenodd" clip-rule="evenodd" d="M20.6361 5.47363L19.9891 5.83906C19.8231 5.93279 19.699 6.0862 19.6421 6.26811L18.5146 9.87103C18.4136 10.1939 18.5411 10.5444 18.826 10.7267L22.0057 12.7619C22.2088 12.892 22.4621 12.9164 22.6864 12.8275L23.2495 12.6043C23.2498 12.5695 23.25 12.5348 23.25 12.5C23.25 9.8139 22.2648 7.35791 20.6361 5.47363ZM22.0592 17.4226L21.7126 17.0627C21.5525 16.8964 21.3247 16.8132 21.095 16.837L17.34 17.2264C17.0035 17.2613 16.732 17.5171 16.6772 17.8509L16.0656 21.5763C16.0275 21.8084 16.1005 22.045 16.2628 22.2152L16.5117 22.4764C18.911 21.5107 20.8817 19.7046 22.0592 17.4226Z" fill="#8B98A6"/>
</svg>
