<svg width="16" height="16" viewBox="0 0 16 16" fill="none" xmlns="http://www.w3.org/2000/svg">
<g clip-path="url(#clip0_65_13593)">
<path d="M8.41249 1.05035C8.31926 0.91432 8.16496 0.833008 8.00005 0.833008C7.83514 0.833008 7.68084 0.91432 7.58761 1.05035L5.33699 4.33428L1.5183 5.45996C1.36012 5.50659 1.2351 5.62822 1.18414 5.78505C1.13319 5.94189 1.16284 6.11377 1.2634 6.24446L3.69112 9.39973L3.58167 13.3794C3.57714 13.5442 3.65418 13.7007 3.78759 13.7976C3.921 13.8946 4.09363 13.9195 4.249 13.8642L8.00005 12.5303L11.7511 13.8642C11.9065 13.9195 12.0791 13.8946 12.2125 13.7976C12.3459 13.7007 12.423 13.5442 12.4184 13.3794L12.309 9.39973L14.7367 6.24446C14.8373 6.11377 14.8669 5.94189 14.816 5.78505C14.765 5.62822 14.64 5.50659 14.4818 5.45996L10.6631 4.33428L8.41249 1.05035Z" fill="#57E06C"/>
</g>
<defs>
<clipPath id="clip0_65_13593">
<rect width="16" height="16" fill="white"/>
</clipPath>
</defs>
</svg>
