<svg width="16" height="16" viewBox="0 0 16 16" fill="none" xmlns="http://www.w3.org/2000/svg">
<g clip-path="url(#clip0_4004_217)">
<path d="M8.412 1.05059C8.31877 0.914564 8.16447 0.833252 7.99956 0.833252C7.83465 0.833252 7.68035 0.914564 7.58713 1.05059L5.3365 4.33453L1.51781 5.46021C1.35963 5.50684 1.23462 5.62846 1.18366 5.7853C1.1327 5.94213 1.16235 6.11401 1.26291 6.24471L3.69064 9.39997L3.58118 13.3796C3.57665 13.5445 3.65369 13.7009 3.7871 13.7979C3.92051 13.8948 4.09314 13.9197 4.24852 13.8645L7.99956 12.5306L11.7506 13.8645C11.906 13.9197 12.0786 13.8948 12.212 13.7979C12.3454 13.7009 12.4225 13.5445 12.4179 13.3796L12.3085 9.39997L14.7362 6.24471C14.8368 6.11401 14.8664 5.94213 14.8155 5.7853C14.7645 5.62846 14.6395 5.50684 14.4813 5.46021L10.6626 4.33453L8.412 1.05059Z" fill="#FFC44D"/>
</g>
<defs>
<clipPath id="clip0_4004_217">
<rect width="16" height="16" fill="white"/>
</clipPath>
</defs>
</svg>
