<svg width="17" height="17" viewBox="0 0 17 17" fill="none" xmlns="http://www.w3.org/2000/svg">
<g clip-path="url(#clip0_6_5123)">
<path d="M8.66249 1.55035C8.56926 1.41432 8.41496 1.33301 8.25005 1.33301C8.08514 1.33301 7.93084 1.41432 7.83761 1.55035L5.58699 4.83428L1.7683 5.95996C1.61012 6.00659 1.4851 6.12822 1.43414 6.28505C1.38319 6.44189 1.41284 6.61377 1.5134 6.74446L3.94112 9.89973L3.83167 13.8794C3.82714 14.0442 3.90418 14.2007 4.03759 14.2976C4.171 14.3946 4.34363 14.4195 4.499 14.3642L8.25005 13.0303L12.0011 14.3642C12.1565 14.4195 12.3291 14.3946 12.4625 14.2976C12.5959 14.2007 12.673 14.0442 12.6684 13.8794L12.559 9.89973L14.9867 6.74446C15.0873 6.61377 15.1169 6.44189 15.066 6.28505C15.015 6.12822 14.89 6.00659 14.7318 5.95996L10.9131 4.83428L8.66249 1.55035Z" fill="#FFC44D"/>
</g>
<defs>
<clipPath id="clip0_6_5123">
<rect width="16" height="16" fill="white" transform="translate(0.25 0.5)"/>
</clipPath>
</defs>
</svg>
