<svg width="32" height="32" viewBox="0 0 32 32" fill="none" xmlns="http://www.w3.org/2000/svg">
<path d="M15.9997 12.333C13.9746 12.333 12.333 13.9746 12.333 15.9997C12.333 18.0247 13.9746 19.6663 15.9997 19.6663C18.0247 19.6663 19.6663 18.0247 19.6663 15.9997C19.6663 13.9746 18.0247 12.333 15.9997 12.333Z" fill="#EE4D4D"/>
<path fill-rule="evenodd" clip-rule="evenodd" d="M15.9997 6.33301C10.6609 6.33301 6.33301 10.6609 6.33301 15.9997C6.33301 21.3384 10.6609 25.6663 15.9997 25.6663C21.3384 25.6663 25.6663 21.3384 25.6663 15.9997C25.6663 10.6609 21.3384 6.33301 15.9997 6.33301ZM4.33301 15.9997C4.33301 9.55635 9.55635 4.33301 15.9997 4.33301C22.443 4.33301 27.6663 9.55635 27.6663 15.9997C27.6663 22.443 22.443 27.6663 15.9997 27.6663C9.55635 27.6663 4.33301 22.443 4.33301 15.9997Z" fill="#EE4D4D"/>
<path fill-rule="evenodd" clip-rule="evenodd" d="M16 1.6665C16.5523 1.6665 17 2.11422 17 2.6665V7.99984C17 8.55212 16.5523 8.99984 16 8.99984C15.4477 8.99984 15 8.55212 15 7.99984V2.6665C15 2.11422 15.4477 1.6665 16 1.6665Z" fill="#EE4D4D"/>
<path fill-rule="evenodd" clip-rule="evenodd" d="M30.333 16C30.333 16.5523 29.8853 17 29.333 17L23.9997 17C23.4474 17 22.9997 16.5523 22.9997 16C22.9997 15.4477 23.4474 15 23.9997 15L29.333 15C29.8853 15 30.333 15.4477 30.333 16Z" fill="#EE4D4D"/>
<path fill-rule="evenodd" clip-rule="evenodd" d="M16 23C16.5523 23 17 23.4477 17 24V29.3333C17 29.8856 16.5523 30.3333 16 30.3333C15.4477 30.3333 15 29.8856 15 29.3333V24C15 23.4477 15.4477 23 16 23Z" fill="#EE4D4D"/>
<path fill-rule="evenodd" clip-rule="evenodd" d="M9 16C9 16.5523 8.55228 17 8 17L2.66667 17C2.11438 17 1.66667 16.5523 1.66667 16C1.66667 15.4477 2.11438 15 2.66667 15L8 15C8.55228 15 9 15.4477 9 16Z" fill="#EE4D4D"/>
</svg>
